<svg width="206" height="27" viewBox="0 0 206 27" fill="none" xmlns="http://www.w3.org/2000/svg">
<path d="M10.1797 10.0859C9.72656 10.0859 8.89844 10.7422 7.69531 12.0547C6.79688 13.0781 6.14453 13.8477 5.73828 14.3633L4.68359 15.6992C4.23047 16.5586 3.875 17.2734 3.61719 17.8438L2.98438 19.2031C2.82031 19.5391 2.67578 19.7773 2.55078 19.918C2.43359 20.0508 2.26953 20.1172 2.05859 20.1172C1.85547 20.1172 1.65625 20.0781 1.46094 20C1.27344 19.9297 1.10938 19.8359 0.96875 19.7188C0.671875 19.4688 0.523438 19.1953 0.523438 18.8984C0.523438 18.7812 0.609375 18.5508 0.78125 18.207L1.22656 17.2578C1.36719 16.9766 1.53125 16.6172 1.71875 16.1797L2.375 14.5742C3.29688 12.2695 3.75781 10.7812 3.75781 10.1094C3.75781 9.75 3.64062 9.48438 3.40625 9.3125L3.17188 9.14844C3.09375 9.09375 3.05469 9 3.05469 8.86719C3.05469 8.72656 3.10547 8.59375 3.20703 8.46875C3.31641 8.34375 3.45703 8.23438 3.62891 8.14062C3.98047 7.96094 4.33203 7.87109 4.68359 7.87109C5.04297 7.87109 5.32422 7.91016 5.52734 7.98828C5.73047 8.06641 5.90625 8.17188 6.05469 8.30469C6.35156 8.57812 6.5 8.86328 6.5 9.16016C6.5 9.45703 6.46094 9.75781 6.38281 10.0625C6.30469 10.3594 6.20703 10.6641 6.08984 10.9766C5.97266 11.2812 5.84766 11.5781 5.71484 11.8672C5.40234 12.5391 5.20703 12.9531 5.12891 13.1094C5.05859 13.2578 5.03906 13.3125 5.07031 13.2734C6.5 11.4219 7.35938 10.3281 7.64844 9.99219C8.25 9.29688 8.71875 8.82031 9.05469 8.5625C9.67188 8.10156 10.2539 7.87109 10.8008 7.87109C11.3555 7.87109 11.7969 8.04297 12.125 8.38672C12.4531 8.73047 12.6172 9.18359 12.6172 9.74609C12.6172 10.2383 12.4922 10.8164 12.2422 11.4805C11.9922 12.1445 11.8242 12.6094 11.7383 12.875L13.4609 10.6016L14.4219 9.45312C15 8.80469 15.5078 8.37891 15.9453 8.17578C16.3828 7.97266 16.7383 7.87109 17.0117 7.87109C17.293 7.87109 17.5664 7.92188 17.832 8.02344C18.1055 8.125 18.3359 8.26953 18.5234 8.45703C18.9219 8.83984 19.1211 9.34766 19.1211 9.98047C19.1211 10.5898 18.9805 11.2148 18.6992 11.8555C18.418 12.4961 18.1719 13.0234 17.9609 13.4375C17.75 13.8438 17.5469 14.2539 17.3516 14.668C16.7812 15.9102 16.4961 16.832 16.4961 17.4336C16.4961 17.8555 16.668 18.0664 17.0117 18.0664C17.3398 18.0664 17.6367 17.9961 17.9023 17.8555C18.1758 17.7148 18.3516 17.6445 18.4297 17.6445C18.5938 17.6445 18.6758 17.7266 18.6758 17.8906C18.6758 18.5859 18.3203 19.168 17.6094 19.6367C17.1328 19.957 16.6953 20.1172 16.2969 20.1172C15.9062 20.1172 15.5898 20.0703 15.3477 19.9766C15.1055 19.8828 14.8867 19.7344 14.6914 19.5312C14.2539 19.0781 14.0352 18.5117 14.0352 17.832C14.0352 17.1523 14.1211 16.5273 14.293 15.957C14.4648 15.3867 14.668 14.8359 14.9023 14.3047C15.1367 13.7656 15.3711 13.2734 15.6055 12.8281C15.8477 12.375 16.0312 12.0156 16.1562 11.75C16.4062 11.2031 16.5312 10.8008 16.5312 10.543C16.5312 10.2383 16.3711 10.0859 16.0508 10.0859C15.6289 10.0859 14.8711 10.7852 13.7773 12.1836C12.9492 13.2695 12.375 14.0508 12.0547 14.5273L11.2461 15.6992C10.793 16.5586 10.4453 17.2734 10.2031 17.8438L9.60547 19.2031C9.45703 19.5391 9.32812 19.7773 9.21875 19.918C9.10938 20.0508 8.95703 20.1172 8.76172 20.1172C8.56641 20.1172 8.375 20.0859 8.1875 20.0234C8.00781 19.9609 7.85156 19.8789 7.71875 19.7773C7.41406 19.5508 7.26172 19.3125 7.26172 19.0625C7.26172 18.8047 7.34375 18.457 7.50781 18.0195C7.67969 17.5742 7.89062 17.0781 8.14062 16.5312L9.78125 13.0625C10.3672 11.7734 10.6602 10.957 10.6602 10.6133C10.6602 10.2617 10.5 10.0859 10.1797 10.0859ZM11.3398 13.3906C11.3477 13.3906 11.3516 13.3867 11.3516 13.3789L11.3633 13.3555C11.3477 13.3711 11.3398 13.3828 11.3398 13.3906ZM27.2422 5.12891C27.0703 5.30859 26.875 5.45703 26.6562 5.57422C26.4375 5.68359 26.207 5.75391 25.9648 5.78516C25.7227 5.80859 25.4922 5.76953 25.2734 5.66797C25.0625 5.56641 24.8789 5.42188 24.7227 5.23438C24.3867 4.84375 24.2188 4.44922 24.2188 4.05078C24.2188 3.65234 24.2812 3.35547 24.4062 3.16016C24.5391 2.95703 24.7031 2.79297 24.8984 2.66797C25.2734 2.42578 25.625 2.30469 25.9531 2.30469C26.2891 2.30469 26.5469 2.32812 26.7266 2.375C26.9141 2.42188 27.0859 2.5 27.2422 2.60938C27.625 2.86719 27.8164 3.18359 27.8164 3.55859C27.8164 3.92578 27.7617 4.23438 27.6523 4.48438C27.5508 4.72656 27.4141 4.94141 27.2422 5.12891ZM24.8398 17.8086C25.043 17.8086 25.1445 17.9414 25.1445 18.207C25.1445 18.5586 24.9844 18.9219 24.6641 19.2969C24.1953 19.8438 23.5664 20.1172 22.7773 20.1172C21.8711 20.1172 21.25 19.75 20.9141 19.0156C20.7891 18.7578 20.7266 18.4453 20.7266 18.0781C20.7266 17.7109 20.7891 17.3047 20.9141 16.8594C21.0469 16.4062 21.207 15.9336 21.3945 15.4414C21.5898 14.9414 21.8008 14.4375 22.0273 13.9297L22.6484 12.4531C23.1016 11.3516 23.3281 10.625 23.3281 10.2734C23.3281 9.92188 23.2891 9.69141 23.2109 9.58203C23.1406 9.46484 23.0625 9.375 22.9766 9.3125L22.7422 9.14844C22.6641 9.09375 22.625 9 22.625 8.86719C22.625 8.72656 22.6758 8.59375 22.7773 8.46875C22.8867 8.34375 23.0273 8.23438 23.1992 8.14062C23.5508 7.96094 23.9609 7.87109 24.4297 7.87109C25.5781 7.87109 26.1523 8.17188 26.1523 8.77344C26.1523 9.47656 25.9688 10.2812 25.6016 11.1875C25.2344 12.0859 24.9219 12.8125 24.6641 13.3672L23.9609 14.9844C23.4453 16.1719 23.1875 17.0273 23.1875 17.5508C23.1875 17.8945 23.3594 18.0664 23.7031 18.0664C24.0391 18.0664 24.293 18.0234 24.4648 17.9375C24.6367 17.8516 24.7617 17.8086 24.8398 17.8086ZM27.2188 17.9375C27.2188 17.6953 27.2695 17.4727 27.3711 17.2695C27.4805 17.0586 27.6133 16.8828 27.7695 16.7422C28.0977 16.4375 28.4414 16.2852 28.8008 16.2852C29.1133 16.2852 29.2695 16.4453 29.2695 16.7656C29.2695 17.5781 29.5391 18.1445 30.0781 18.4648C30.2734 18.582 30.4766 18.6406 30.6875 18.6406C30.8984 18.6406 31.0781 18.6172 31.2266 18.5703C31.375 18.5234 31.5117 18.4492 31.6367 18.3477C31.918 18.1211 32.0586 17.8516 32.0586 17.5391C32.0586 17.2266 31.9883 16.9414 31.8477 16.6836C31.707 16.418 31.5312 16.1406 31.3203 15.8516L30.6523 14.9141C29.7148 13.6641 29.2461 12.5117 29.2461 11.457C29.2461 10.582 29.6172 9.78906 30.3594 9.07812C31.2031 8.27344 32.2852 7.87109 33.6055 7.87109C34.7617 7.87109 35.6641 8.15625 36.3125 8.72656C36.8438 9.1875 37.1094 9.71484 37.1094 10.3086C37.1094 10.9258 36.875 11.418 36.4062 11.7852C35.9844 12.1133 35.5625 12.2344 35.1406 12.1484C34.9531 12.1094 34.8086 12.0156 34.707 11.8672C34.6055 11.7109 34.5859 11.5352 34.6484 11.3398C34.7109 11.1445 34.7422 10.9414 34.7422 10.7305C34.7422 10.5195 34.7031 10.3242 34.625 10.1445C34.5469 9.96484 34.4414 9.8125 34.3086 9.6875C34.0352 9.42969 33.7461 9.30078 33.4414 9.30078C33.1445 9.30078 32.8984 9.33594 32.7031 9.40625C32.5078 9.46875 32.3359 9.5625 32.1875 9.6875C31.8828 9.96875 31.7305 10.3164 31.7305 10.7305C31.7305 11.1367 31.8008 11.4883 31.9414 11.7852C32.082 12.082 32.2539 12.3789 32.457 12.6758C32.668 12.9727 32.8945 13.2734 33.1367 13.5781C33.3789 13.8828 33.6016 14.2031 33.8047 14.5391C34.2969 15.3281 34.543 16.0234 34.543 16.625C34.543 17.2188 34.418 17.7188 34.168 18.125C33.918 18.5234 33.5938 18.8672 33.1953 19.1562C32.3438 19.7891 31.3906 20.1055 30.3359 20.1055C29.3281 20.1055 28.5312 19.8633 27.9453 19.3789C27.4609 18.9727 27.2188 18.4922 27.2188 17.9375ZM46.4141 10.0859C45.9844 10.0859 45.2148 10.7422 44.1055 12.0547L43.1328 13.25L41.2578 15.6992C40.8047 16.5586 40.4492 17.2734 40.1914 17.8438L39.5586 19.2031C39.3945 19.5391 39.25 19.7773 39.125 19.918C39.0078 20.0508 38.8438 20.1172 38.6328 20.1172C38.4297 20.1172 38.2305 20.0781 38.0352 20C37.8477 19.9297 37.6836 19.8359 37.543 19.7188C37.2461 19.4688 37.0977 19.1953 37.0977 18.8984C37.0977 18.7812 37.1797 18.5508 37.3438 18.207L37.8125 17.2578C39.2734 14.25 40.5977 10.4375 41.7852 5.82031C42.2227 4.11719 42.5391 2.58594 42.7344 1.22656C42.8203 0.570312 43.1406 0.242188 43.6953 0.242188C44.0547 0.242188 44.3516 0.328125 44.5859 0.5C45.0391 0.835938 45.2578 1.19531 45.2422 1.57812C45.2266 1.96094 45.1719 2.39062 45.0781 2.86719C44.9844 3.34375 44.8633 3.86328 44.7148 4.42578C44.5664 4.98047 44.3984 5.56641 44.2109 6.18359C43.6953 7.75391 43.3125 8.88672 43.0625 9.58203C42.2969 11.6836 41.8242 12.9141 41.6445 13.2734C41.7617 13.1328 41.9141 12.9414 42.1016 12.6992C43.5234 10.832 44.4023 9.71875 44.7383 9.35938C45.0742 8.99219 45.3594 8.71094 45.5938 8.51562C46.0859 8.08594 46.7109 7.87109 47.4688 7.87109C48.0859 7.87109 48.582 8.07812 48.957 8.49219C49.3086 8.89062 49.4844 9.32812 49.4844 9.80469C49.4844 10.2734 49.4297 10.6992 49.3203 11.082C49.2188 11.457 49.0859 11.8398 48.9219 12.2305C48.7578 12.6211 48.5781 13.0234 48.3828 13.4375L47.7969 14.668C47.25 15.9102 46.9766 16.832 46.9766 17.4336C46.9766 17.8555 47.1484 18.0664 47.4922 18.0664C47.8203 18.0664 48.1172 17.9961 48.3828 17.8555C48.6562 17.7148 48.832 17.6445 48.9102 17.6445C49.0742 17.6445 49.1562 17.7266 49.1562 17.8906C49.1562 18.5859 48.8047 19.168 48.1016 19.6367C47.6172 19.957 47.1758 20.1172 46.7773 20.1172C46.3789 20.1172 46.0469 20.0781 45.7812 20C45.5234 19.9141 45.293 19.7773 45.0898 19.5898C44.6289 19.168 44.3984 18.5469 44.3984 17.7266C44.3984 16.8438 44.6875 15.7344 45.2656 14.3984L46.5312 11.7031C46.7734 11.2031 46.8945 10.8086 46.8945 10.5195C46.8945 10.2305 46.7344 10.0859 46.4141 10.0859ZM57.6172 5.12891C57.4453 5.30859 57.25 5.45703 57.0312 5.57422C56.8125 5.68359 56.582 5.75391 56.3398 5.78516C56.0977 5.80859 55.8672 5.76953 55.6484 5.66797C55.4375 5.56641 55.2539 5.42188 55.0977 5.23438C54.7617 4.84375 54.5938 4.44922 54.5938 4.05078C54.5938 3.65234 54.6562 3.35547 54.7812 3.16016C54.9141 2.95703 55.0781 2.79297 55.2734 2.66797C55.6484 2.42578 56 2.30469 56.3281 2.30469C56.6641 2.30469 56.9219 2.32812 57.1016 2.375C57.2891 2.42188 57.4609 2.5 57.6172 2.60938C58 2.86719 58.1914 3.18359 58.1914 3.55859C58.1914 3.92578 58.1367 4.23438 58.0273 4.48438C57.9258 4.72656 57.7891 4.94141 57.6172 5.12891ZM55.2148 17.8086C55.418 17.8086 55.5195 17.9414 55.5195 18.207C55.5195 18.5586 55.3594 18.9219 55.0391 19.2969C54.5703 19.8438 53.9414 20.1172 53.1523 20.1172C52.2461 20.1172 51.625 19.75 51.2891 19.0156C51.1641 18.7578 51.1016 18.4453 51.1016 18.0781C51.1016 17.7109 51.1641 17.3047 51.2891 16.8594C51.4219 16.4062 51.582 15.9336 51.7695 15.4414C51.9648 14.9414 52.1758 14.4375 52.4023 13.9297L53.0234 12.4531C53.4766 11.3516 53.7031 10.625 53.7031 10.2734C53.7031 9.92188 53.6641 9.69141 53.5859 9.58203C53.5156 9.46484 53.4375 9.375 53.3516 9.3125L53.1172 9.14844C53.0391 9.09375 53 9 53 8.86719C53 8.72656 53.0508 8.59375 53.1523 8.46875C53.2617 8.34375 53.4023 8.23438 53.5742 8.14062C53.9258 7.96094 54.3359 7.87109 54.8047 7.87109C55.9531 7.87109 56.5273 8.17188 56.5273 8.77344C56.5273 9.47656 56.3438 10.2812 55.9766 11.1875C55.6094 12.0859 55.2969 12.8125 55.0391 13.3672L54.3359 14.9844C53.8203 16.1719 53.5625 17.0273 53.5625 17.5508C53.5625 17.8945 53.7344 18.0664 54.0781 18.0664C54.4141 18.0664 54.668 18.0234 54.8398 17.9375C55.0117 17.8516 55.1367 17.8086 55.2148 17.8086ZM66.9922 10.0859C66.5391 10.0859 65.7109 10.7422 64.5078 12.0547C63.6094 13.0781 62.957 13.8477 62.5508 14.3633L61.4961 15.6992C61.043 16.5586 60.6875 17.2734 60.4297 17.8438L59.7969 19.2031C59.6328 19.5391 59.4883 19.7773 59.3633 19.918C59.2461 20.0508 59.082 20.1172 58.8711 20.1172C58.668 20.1172 58.4688 20.0781 58.2734 20C58.0859 19.9297 57.9219 19.8359 57.7812 19.7188C57.4844 19.4688 57.3359 19.1953 57.3359 18.8984C57.3359 18.7812 57.4219 18.5508 57.5938 18.207L58.0391 17.2578C58.1797 16.9766 58.3438 16.6172 58.5312 16.1797L59.1875 14.5742C60.1094 12.2695 60.5703 10.7812 60.5703 10.1094C60.5703 9.75 60.4531 9.48438 60.2188 9.3125L59.9844 9.14844C59.9062 9.09375 59.8672 9 59.8672 8.86719C59.8672 8.72656 59.918 8.59375 60.0195 8.46875C60.1289 8.34375 60.2695 8.23438 60.4414 8.14062C60.793 7.96094 61.1445 7.87109 61.4961 7.87109C61.8555 7.87109 62.1367 7.91016 62.3398 7.98828C62.543 8.06641 62.7188 8.17188 62.8672 8.30469C63.1641 8.57812 63.3125 8.86328 63.3125 9.16016C63.3125 9.45703 63.2734 9.75781 63.1953 10.0625C63.1172 10.3594 63.0195 10.6641 62.9023 10.9766C62.7852 11.2812 62.6602 11.5781 62.5273 11.8672C62.2148 12.5391 62.0195 12.9531 61.9414 13.1094C61.8711 13.2578 61.8516 13.3125 61.8828 13.2734C63.3125 11.4219 64.1719 10.3281 64.4609 9.99219C65.0625 9.29688 65.5312 8.82031 65.8672 8.5625C66.4844 8.10156 67.0664 7.87109 67.6133 7.87109C68.168 7.87109 68.6094 8.04297 68.9375 8.38672C69.2656 8.73047 69.4297 9.18359 69.4297 9.74609C69.4297 10.2383 69.3047 10.8164 69.0547 11.4805C68.8047 12.1445 68.6367 12.6094 68.5508 12.875L70.2734 10.6016L71.2344 9.45312C71.8125 8.80469 72.3203 8.37891 72.7578 8.17578C73.1953 7.97266 73.5508 7.87109 73.8242 7.87109C74.1055 7.87109 74.3789 7.92188 74.6445 8.02344C74.918 8.125 75.1484 8.26953 75.3359 8.45703C75.7344 8.83984 75.9336 9.34766 75.9336 9.98047C75.9336 10.5898 75.793 11.2148 75.5117 11.8555C75.2305 12.4961 74.9844 13.0234 74.7734 13.4375C74.5625 13.8438 74.3594 14.2539 74.1641 14.668C73.5938 15.9102 73.3086 16.832 73.3086 17.4336C73.3086 17.8555 73.4805 18.0664 73.8242 18.0664C74.1523 18.0664 74.4492 17.9961 74.7148 17.8555C74.9883 17.7148 75.1641 17.6445 75.2422 17.6445C75.4062 17.6445 75.4883 17.7266 75.4883 17.8906C75.4883 18.5859 75.1328 19.168 74.4219 19.6367C73.9453 19.957 73.5078 20.1172 73.1094 20.1172C72.7188 20.1172 72.4023 20.0703 72.1602 19.9766C71.918 19.8828 71.6992 19.7344 71.5039 19.5312C71.0664 19.0781 70.8477 18.5117 70.8477 17.832C70.8477 17.1523 70.9336 16.5273 71.1055 15.957C71.2773 15.3867 71.4805 14.8359 71.7148 14.3047C71.9492 13.7656 72.1836 13.2734 72.418 12.8281C72.6602 12.375 72.8438 12.0156 72.9688 11.75C73.2188 11.2031 73.3438 10.8008 73.3438 10.543C73.3438 10.2383 73.1836 10.0859 72.8633 10.0859C72.4414 10.0859 71.6836 10.7852 70.5898 12.1836C69.7617 13.2695 69.1875 14.0508 68.8672 14.5273L68.0586 15.6992C67.6055 16.5586 67.2578 17.2734 67.0156 17.8438L66.418 19.2031C66.2695 19.5391 66.1406 19.7773 66.0312 19.918C65.9219 20.0508 65.7695 20.1172 65.5742 20.1172C65.3789 20.1172 65.1875 20.0859 65 20.0234C64.8203 19.9609 64.6641 19.8789 64.5312 19.7773C64.2266 19.5508 64.0742 19.3125 64.0742 19.0625C64.0742 18.8047 64.1562 18.457 64.3203 18.0195C64.4922 17.5742 64.7031 17.0781 64.9531 16.5312L66.5938 13.0625C67.1797 11.7734 67.4727 10.957 67.4727 10.6133C67.4727 10.2617 67.3125 10.0859 66.9922 10.0859ZM68.1523 13.3906C68.1602 13.3906 68.1641 13.3867 68.1641 13.3789L68.1758 13.3555C68.1602 13.3711 68.1523 13.3828 68.1523 13.3906ZM86.7734 16.8828C86.7734 17.6016 87.0273 17.9609 87.5352 17.9609C87.8867 17.9609 88.1758 17.9062 88.4023 17.7969C88.6367 17.6875 88.793 17.6328 88.8711 17.6328C89.0352 17.6328 89.1172 17.7188 89.1172 17.8906C89.1172 18.5625 88.7656 19.1406 88.0625 19.625C87.3203 20.1328 86.5625 20.2578 85.7891 20C85.2812 19.8203 84.9062 19.4336 84.6641 18.8398C84.5469 18.5352 84.4883 18.2578 84.4883 18.0078C84.4883 17.6016 84.5273 17.1719 84.6055 16.7188C83.8789 18.2031 82.9766 19.2266 81.8984 19.7891C81.4688 20.0078 81.0117 20.1172 80.5273 20.1172C80.043 20.1172 79.6211 20.0195 79.2617 19.8242C78.9102 19.6211 78.6094 19.3438 78.3594 18.9922C77.8516 18.2578 77.6211 17.3359 77.668 16.2266C77.7148 14.8359 78.125 13.4727 78.8984 12.1367C79.6094 10.8867 80.5078 9.86719 81.5938 9.07812C82.6797 8.27344 83.6953 7.87109 84.6406 7.87109C85.5859 7.87109 86.3477 8.30469 86.9258 9.17188C87.4648 8.30469 87.9414 7.87109 88.3555 7.87109C88.8008 7.87109 89.1367 7.95312 89.3633 8.11719C89.793 8.42969 89.9453 8.70312 89.8203 8.9375C87.8594 12.9531 86.8516 15.4531 86.7969 16.4375C86.7812 16.5781 86.7734 16.7266 86.7734 16.8828ZM80.2695 16.9297C80.2695 17.8672 80.5703 18.3359 81.1719 18.3359C81.6328 18.3359 82.1992 17.9453 82.8711 17.1641C83.8555 16.0156 84.7266 14.4688 85.4844 12.5234C85.7266 11.9141 85.9297 11.3047 86.0938 10.6953C86.0625 10.1641 85.8398 9.77344 85.4258 9.52344C85.2852 9.4375 85.0742 9.39453 84.793 9.39453C84.5195 9.39453 84.1953 9.49609 83.8203 9.69922C83.4531 9.90234 83.0938 10.1797 82.7422 10.5312C82.3984 10.8828 82.0742 11.3008 81.7695 11.7852C81.4727 12.2617 81.2109 12.7812 80.9844 13.3438C80.5078 14.5469 80.2695 15.7422 80.2695 16.9297ZM95.4688 5.79688C95.2109 5.99219 94.9492 6.14844 94.6836 6.26562C94.418 6.375 94.1445 6.42969 93.8633 6.42969C93.582 6.42969 93.4258 6.33984 93.3945 6.16016C93.3789 6.05859 93.4453 5.92188 93.5938 5.75L94.0977 5.23438C94.7539 4.5625 95.082 3.96875 95.082 3.45312C95.082 2.98438 94.9844 2.59375 94.7891 2.28125C94.5938 1.96094 94.4609 1.73437 94.3906 1.60156C94.3281 1.46875 94.3438 1.29297 94.4375 1.07422C94.5312 0.847656 94.7148 0.652344 94.9883 0.488281C95.2695 0.324219 95.6289 0.242188 96.0664 0.242188C96.5039 0.242188 96.8516 0.4375 97.1094 0.828125C97.3672 1.21094 97.4961 1.63672 97.4961 2.10547C97.4961 2.57422 97.4375 2.97266 97.3203 3.30078C97.2109 3.62109 97.0625 3.93359 96.875 4.23828C96.6953 4.54297 96.4805 4.82812 96.2305 5.09375C95.9883 5.35938 95.7344 5.59375 95.4688 5.79688ZM96.6172 17.9375C96.6172 17.6953 96.668 17.4727 96.7695 17.2695C96.8789 17.0586 97.0117 16.8828 97.168 16.7422C97.4961 16.4375 97.8398 16.2852 98.1992 16.2852C98.5117 16.2852 98.668 16.4453 98.668 16.7656C98.668 17.5781 98.9375 18.1445 99.4766 18.4648C99.6719 18.582 99.875 18.6406 100.086 18.6406C100.297 18.6406 100.477 18.6172 100.625 18.5703C100.773 18.5234 100.91 18.4492 101.035 18.3477C101.316 18.1211 101.457 17.8516 101.457 17.5391C101.457 17.2266 101.387 16.9414 101.246 16.6836C101.105 16.418 100.93 16.1406 100.719 15.8516L100.051 14.9141C99.1133 13.6641 98.6445 12.5117 98.6445 11.457C98.6445 10.582 99.0156 9.78906 99.7578 9.07812C100.602 8.27344 101.684 7.87109 103.004 7.87109C104.16 7.87109 105.062 8.15625 105.711 8.72656C106.242 9.1875 106.508 9.71484 106.508 10.3086C106.508 10.9258 106.273 11.418 105.805 11.7852C105.383 12.1133 104.961 12.2344 104.539 12.1484C104.352 12.1094 104.207 12.0156 104.105 11.8672C104.004 11.7109 103.984 11.5352 104.047 11.3398C104.109 11.1445 104.141 10.9414 104.141 10.7305C104.141 10.5195 104.102 10.3242 104.023 10.1445C103.945 9.96484 103.84 9.8125 103.707 9.6875C103.434 9.42969 103.145 9.30078 102.84 9.30078C102.543 9.30078 102.297 9.33594 102.102 9.40625C101.906 9.46875 101.734 9.5625 101.586 9.6875C101.281 9.96875 101.129 10.3164 101.129 10.7305C101.129 11.1367 101.199 11.4883 101.34 11.7852C101.48 12.082 101.652 12.3789 101.855 12.6758C102.066 12.9727 102.293 13.2734 102.535 13.5781C102.777 13.8828 103 14.2031 103.203 14.5391C103.695 15.3281 103.941 16.0234 103.941 16.625C103.941 17.2188 103.816 17.7188 103.566 18.125C103.316 18.5234 102.992 18.8672 102.594 19.1562C101.742 19.7891 100.789 20.1055 99.7344 20.1055C98.7266 20.1055 97.9297 19.8633 97.3438 19.3789C96.8594 18.9727 96.6172 18.4922 96.6172 17.9375ZM116.832 18.8867C116.816 19.0039 116.645 19.6211 116.316 20.7383C115.996 21.8555 115.727 22.7422 115.508 23.3984C115.016 24.8672 114.609 25.7812 114.289 26.1406C114.031 26.4219 113.719 26.5625 113.352 26.5625C112.906 26.5625 112.566 26.3438 112.332 25.9062C112.262 25.7812 112.227 25.6406 112.227 25.4844C112.227 25.3359 112.344 25.0078 112.578 24.5C113.195 23.2109 114.02 20.6719 115.051 16.8828C115.465 15.3828 115.738 14.3633 115.871 13.8242L116.246 12.3594C116.488 11.3906 116.629 10.7344 116.668 10.3906C116.715 10.0391 116.695 9.79297 116.609 9.65234C116.523 9.50391 116.426 9.39453 116.316 9.32422C116.207 9.24609 116.105 9.17969 116.012 9.125C115.918 9.07031 115.879 8.97266 115.895 8.83203C115.91 8.68359 115.973 8.55078 116.082 8.43359C116.199 8.30859 116.344 8.20312 116.516 8.11719C116.867 7.95312 117.219 7.87109 117.57 7.87109C117.93 7.87109 118.211 7.91406 118.414 8C118.617 8.08594 118.785 8.20312 118.918 8.35156C119.199 8.65625 119.324 8.95312 119.293 9.24219C119.215 9.84375 119.129 10.3594 119.035 10.7891C120.402 8.84375 121.82 7.87109 123.289 7.87109C124.625 7.87109 125.52 8.5625 125.973 9.94531C126.129 10.4297 126.207 11.0195 126.207 11.7148C126.207 12.4102 126.102 13.1094 125.891 13.8125C125.68 14.5078 125.395 15.168 125.035 15.793C124.676 16.418 124.258 16.9961 123.781 17.5273C123.305 18.0508 122.801 18.5078 122.27 18.8984C121.145 19.7109 120.082 20.1172 119.082 20.1172C118.082 20.1172 117.332 19.707 116.832 18.8867ZM118.637 13.8945C118.355 14.4414 118.125 14.9883 117.945 15.5352C117.773 16.082 117.688 16.582 117.688 17.0352C117.688 17.4883 117.785 17.8633 117.98 18.1602C118.176 18.4492 118.465 18.5938 118.848 18.5938C119.23 18.5938 119.609 18.4922 119.984 18.2891C120.367 18.0781 120.734 17.7969 121.086 17.4453C121.445 17.0938 121.777 16.6836 122.082 16.2148C122.395 15.7383 122.664 15.2344 122.891 14.7031C123.383 13.5469 123.629 12.4492 123.629 11.4102C123.629 10.8477 123.555 10.4102 123.406 10.0977C123.258 9.78516 123.027 9.62891 122.715 9.62891C122.41 9.62891 122.09 9.75 121.754 9.99219C121.418 10.2266 121.066 10.543 120.699 10.9414C120.332 11.332 119.969 11.7852 119.609 12.3008C119.25 12.8086 118.926 13.3398 118.637 13.8945ZM129.043 19.2031C128.715 18.8906 128.457 18.4961 128.27 18.0195C128.082 17.5352 127.984 16.9648 127.977 16.3086C127.969 15.6523 128.047 14.9883 128.211 14.3164C128.383 13.6445 128.621 12.9961 128.926 12.3711C129.238 11.7461 129.609 11.1602 130.039 10.6133C130.477 10.0664 130.957 9.58984 131.48 9.18359C132.621 8.30859 133.805 7.87109 135.031 7.87109C136.641 7.87109 137.73 8.57812 138.301 9.99219C138.707 11.0156 138.73 12.2539 138.371 13.707C138.043 15.043 137.441 16.2695 136.566 17.3867C135.699 18.5039 134.676 19.2969 133.496 19.7656C132.902 20 132.316 20.1172 131.738 20.1172C131.168 20.1172 130.656 20.043 130.203 19.8945C129.758 19.7461 129.371 19.5156 129.043 19.2031ZM131.281 13.5195C131.047 14.0977 130.859 14.6914 130.719 15.3008C130.586 15.9102 130.523 16.4883 130.531 17.0352C130.539 17.5742 130.621 18 130.777 18.3125C130.941 18.6172 131.203 18.7695 131.562 18.7695C131.922 18.7695 132.273 18.6484 132.617 18.4062C132.969 18.1562 133.309 17.8281 133.637 17.4219C133.965 17.0156 134.273 16.5469 134.562 16.0156C134.852 15.4844 135.105 14.9297 135.324 14.3516C135.801 13.0938 136.031 11.9766 136.016 11C136.016 10.1406 135.84 9.59375 135.488 9.35938C135.348 9.26562 135.148 9.21875 134.891 9.21875C134.641 9.21875 134.352 9.33594 134.023 9.57031C133.695 9.79688 133.367 10.1055 133.039 10.4961C132.711 10.8867 132.395 11.3438 132.09 11.8672C131.785 12.3906 131.516 12.9414 131.281 13.5195ZM140.352 19.7188C140.195 19.6016 140.07 19.4727 139.977 19.332C139.883 19.1836 139.832 19.0586 139.824 18.957C139.816 18.8477 139.836 18.7188 139.883 18.5703C139.938 18.4141 140.008 18.2266 140.094 18.0078C141.688 14.0859 142.484 11.4531 142.484 10.1094C142.461 9.73438 142.332 9.46875 142.098 9.3125L141.863 9.14844C141.793 9.09375 141.754 9 141.746 8.86719C141.746 8.72656 141.797 8.59375 141.898 8.46875C142 8.34375 142.133 8.23438 142.297 8.14062C142.633 7.96094 142.977 7.87109 143.328 7.87109C143.688 7.87109 143.965 7.91016 144.16 7.98828C144.363 8.06641 144.535 8.17188 144.676 8.30469C144.973 8.58594 145.121 8.88281 145.121 9.19531C145.129 9.50781 145.094 9.82422 145.016 10.1445C144.945 10.4648 144.859 10.7812 144.758 11.0938C144.656 11.3984 144.555 11.6914 144.453 11.9727C144.352 12.2461 144.285 12.4492 144.254 12.582C144.191 12.8555 144.168 13.0273 144.184 13.0977C144.371 12.9336 144.484 12.7734 144.523 12.6172L144.98 11.75C145.996 9.92188 146.988 8.71094 147.957 8.11719C148.238 7.95312 148.574 7.87109 148.965 7.87109C149.363 7.87109 149.684 8.01172 149.926 8.29297C150.168 8.56641 150.293 8.87109 150.301 9.20703C150.316 9.54297 150.293 9.82422 150.23 10.0508C150.176 10.2695 150.09 10.4766 149.973 10.6719C149.715 11.1094 149.402 11.3281 149.035 11.3281C148.934 11.3281 148.84 11.293 148.754 11.2227L148.496 11C148.238 10.7734 147.988 10.6602 147.746 10.6602C147.512 10.6602 147.223 10.8164 146.879 11.1289C146.543 11.4414 146.191 11.8438 145.824 12.3359C144.59 13.9688 143.582 15.7969 142.801 17.8203L142.285 19.1797C142.152 19.5156 142.035 19.7578 141.934 19.9062C141.832 20.0469 141.68 20.1172 141.477 20.1172C141.281 20.1172 141.082 20.0781 140.879 20C140.684 19.9297 140.508 19.8359 140.352 19.7188ZM156.922 16.9297C157.148 16.9297 157.262 17.082 157.262 17.3867C157.262 17.6445 157.184 17.8945 157.027 18.1367C156.816 18.5898 156.395 19.0195 155.762 19.4258C155.043 19.8867 154.32 20.1172 153.594 20.1172C152.336 20.1172 151.539 19.5547 151.203 18.4297C150.805 17.0938 151.402 14.2617 152.996 9.93359C152.098 9.85547 151.609 9.69922 151.531 9.46484C151.508 9.39453 151.496 9.32031 151.496 9.24219C151.496 9.15625 151.531 9.05859 151.602 8.94922C151.68 8.83984 151.777 8.73438 151.895 8.63281C152.168 8.40625 152.445 8.29297 152.727 8.29297H153.652C154.496 6.31641 155.098 5.19141 155.457 4.91797C155.629 4.79297 155.82 4.73047 156.031 4.73047C156.242 4.73047 156.418 4.75781 156.559 4.8125C156.699 4.86719 156.824 4.94531 156.934 5.04688C157.184 5.28125 157.309 5.54297 157.309 5.83203C157.309 5.98828 157.262 6.16797 157.168 6.37109L156.301 8.25781H156.582C157.066 8.25781 157.457 8.25391 157.754 8.24609C157.754 8.24609 157.977 8.24219 158.422 8.23438C158.57 8.22656 158.754 8.22266 158.973 8.22266C159.199 8.22266 159.312 8.30469 159.312 8.46875C159.312 9.5 158.094 10.0156 155.656 10.0156H155.562L154.766 12.0781C153.867 14.5156 153.418 16.2227 153.418 17.1992C153.418 17.4727 153.48 17.6875 153.605 17.8438C153.73 17.9922 153.965 18.0664 154.309 18.0664C154.652 18.0664 154.965 18.0078 155.246 17.8906C155.527 17.7734 155.773 17.6445 155.984 17.5039C156.195 17.3555 156.375 17.2227 156.523 17.1055C156.68 16.9883 156.812 16.9297 156.922 16.9297ZM157.402 22.5781C157.402 22.4141 157.527 22.0859 157.777 21.5938C158.02 21.1094 158.285 20.4883 158.574 19.7305C158.871 18.9727 159.152 18.1836 159.418 17.3633C159.684 16.543 159.953 15.6641 160.227 14.7266L161.141 11.6328L159.922 11.9609C159.617 11.9609 159.367 11.8008 159.172 11.4805C159.125 11.3945 159.102 11.293 159.102 11.1758C159.102 11.0586 159.195 10.9219 159.383 10.7656C159.57 10.6016 159.801 10.4492 160.074 10.3086C160.621 10.0273 161.184 9.8125 161.762 9.66406L161.867 9.33594C162.078 8.67969 162.277 8 162.465 7.29688C162.66 6.58594 162.863 5.89453 163.074 5.22266C163.293 4.55078 163.539 3.91406 163.812 3.3125C164.086 2.70312 164.406 2.17188 164.773 1.71875C165.586 0.734375 166.605 0.242188 167.832 0.242188C168.738 0.242188 169.457 0.484375 169.988 0.96875C170.52 1.45312 170.785 2.10937 170.785 2.9375C170.785 3.79687 170.539 4.54297 170.047 5.17578C169.633 5.69922 169.172 5.96094 168.664 5.96094C168.031 5.96094 167.602 5.67188 167.375 5.09375C167.312 4.94531 167.281 4.82031 167.281 4.71875C167.281 4.54687 167.398 4.39062 167.633 4.25C168.062 3.92188 168.363 3.48438 168.535 2.9375C168.59 2.76562 168.617 2.59766 168.617 2.43359C168.617 1.79297 168.367 1.47266 167.867 1.47266C167.18 1.47266 166.547 2.25 165.969 3.80469C165.797 4.28125 165.625 4.80469 165.453 5.375L164.352 9.11328C165.062 9.00391 165.578 8.94922 165.898 8.94922C166.227 8.94922 166.516 8.98828 166.766 9.06641C167.016 9.13672 167.242 9.23828 167.445 9.37109C167.906 9.67578 168.137 10.0508 168.137 10.4961C168.137 10.9414 167.918 11.1641 167.48 11.1641L165.992 11.1055C165.18 11.1055 164.43 11.1406 163.742 11.2109L162.781 14.6094C162.148 16.9141 161.633 18.5898 161.234 19.6367C160.844 20.6836 160.461 21.5703 160.086 22.2969C159.734 22.9609 159.199 23.293 158.48 23.293C157.762 23.293 157.402 23.0547 157.402 22.5781ZM169.262 19.2031C168.934 18.8906 168.676 18.4961 168.488 18.0195C168.301 17.5352 168.203 16.9648 168.195 16.3086C168.188 15.6523 168.266 14.9883 168.43 14.3164C168.602 13.6445 168.84 12.9961 169.145 12.3711C169.457 11.7461 169.828 11.1602 170.258 10.6133C170.695 10.0664 171.176 9.58984 171.699 9.18359C172.84 8.30859 174.023 7.87109 175.25 7.87109C176.859 7.87109 177.949 8.57812 178.52 9.99219C178.926 11.0156 178.949 12.2539 178.59 13.707C178.262 15.043 177.66 16.2695 176.785 17.3867C175.918 18.5039 174.895 19.2969 173.715 19.7656C173.121 20 172.535 20.1172 171.957 20.1172C171.387 20.1172 170.875 20.043 170.422 19.8945C169.977 19.7461 169.59 19.5156 169.262 19.2031ZM171.5 13.5195C171.266 14.0977 171.078 14.6914 170.938 15.3008C170.805 15.9102 170.742 16.4883 170.75 17.0352C170.758 17.5742 170.84 18 170.996 18.3125C171.16 18.6172 171.422 18.7695 171.781 18.7695C172.141 18.7695 172.492 18.6484 172.836 18.4062C173.188 18.1562 173.527 17.8281 173.855 17.4219C174.184 17.0156 174.492 16.5469 174.781 16.0156C175.07 15.4844 175.324 14.9297 175.543 14.3516C176.02 13.0938 176.25 11.9766 176.234 11C176.234 10.1406 176.059 9.59375 175.707 9.35938C175.566 9.26562 175.367 9.21875 175.109 9.21875C174.859 9.21875 174.57 9.33594 174.242 9.57031C173.914 9.79688 173.586 10.1055 173.258 10.4961C172.93 10.8867 172.613 11.3438 172.309 11.8672C172.004 12.3906 171.734 12.9414 171.5 13.5195ZM181.098 19.5312C180.902 19.3281 180.742 19.0703 180.617 18.7578C180.5 18.4375 180.441 18.0703 180.441 17.6562C180.441 17.2344 180.535 16.6719 180.723 15.9688C180.918 15.2656 181.164 14.4648 181.461 13.5664L182.445 10.6484C183.844 6.58594 184.652 3.44531 184.871 1.22656C184.941 0.570312 185.262 0.242188 185.832 0.242188C186.191 0.242188 186.488 0.328125 186.723 0.5C187.176 0.84375 187.395 1.22656 187.379 1.64844C187.363 2.07031 187.289 2.58594 187.156 3.19531C187.023 3.79687 186.852 4.45703 186.641 5.17578C186.43 5.88672 186.188 6.64062 185.914 7.4375L184.297 12.1953C183.367 14.8984 182.902 16.6445 182.902 17.4336C182.902 17.8555 183.074 18.0664 183.418 18.0664C183.746 18.0664 184.043 17.9961 184.309 17.8555C184.582 17.7148 184.758 17.6445 184.836 17.6445C185 17.6445 185.082 17.7266 185.082 17.8906C185.082 18.5859 184.727 19.168 184.016 19.6367C183.539 19.957 183.102 20.1172 182.703 20.1172C182.312 20.1172 181.996 20.0703 181.754 19.9766C181.512 19.8828 181.293 19.7344 181.098 19.5312ZM193.555 5.12891C193.383 5.30859 193.188 5.45703 192.969 5.57422C192.75 5.68359 192.52 5.75391 192.277 5.78516C192.035 5.80859 191.805 5.76953 191.586 5.66797C191.375 5.56641 191.191 5.42188 191.035 5.23438C190.699 4.84375 190.531 4.44922 190.531 4.05078C190.531 3.65234 190.594 3.35547 190.719 3.16016C190.852 2.95703 191.016 2.79297 191.211 2.66797C191.586 2.42578 191.938 2.30469 192.266 2.30469C192.602 2.30469 192.859 2.32812 193.039 2.375C193.227 2.42188 193.398 2.5 193.555 2.60938C193.938 2.86719 194.129 3.18359 194.129 3.55859C194.129 3.92578 194.074 4.23438 193.965 4.48438C193.863 4.72656 193.727 4.94141 193.555 5.12891ZM191.152 17.8086C191.355 17.8086 191.457 17.9414 191.457 18.207C191.457 18.5586 191.297 18.9219 190.977 19.2969C190.508 19.8438 189.879 20.1172 189.09 20.1172C188.184 20.1172 187.562 19.75 187.227 19.0156C187.102 18.7578 187.039 18.4453 187.039 18.0781C187.039 17.7109 187.102 17.3047 187.227 16.8594C187.359 16.4062 187.52 15.9336 187.707 15.4414C187.902 14.9414 188.113 14.4375 188.34 13.9297L188.961 12.4531C189.414 11.3516 189.641 10.625 189.641 10.2734C189.641 9.92188 189.602 9.69141 189.523 9.58203C189.453 9.46484 189.375 9.375 189.289 9.3125L189.055 9.14844C188.977 9.09375 188.938 9 188.938 8.86719C188.938 8.72656 188.988 8.59375 189.09 8.46875C189.199 8.34375 189.34 8.23438 189.512 8.14062C189.863 7.96094 190.273 7.87109 190.742 7.87109C191.891 7.87109 192.465 8.17188 192.465 8.77344C192.465 9.47656 192.281 10.2812 191.914 11.1875C191.547 12.0859 191.234 12.8125 190.977 13.3672L190.273 14.9844C189.758 16.1719 189.5 17.0273 189.5 17.5508C189.5 17.8945 189.672 18.0664 190.016 18.0664C190.352 18.0664 190.605 18.0234 190.777 17.9375C190.949 17.8516 191.074 17.8086 191.152 17.8086ZM195.184 19.2031C194.855 18.8906 194.598 18.4961 194.41 18.0195C194.223 17.5352 194.125 16.9648 194.117 16.3086C194.109 15.6523 194.188 14.9883 194.352 14.3164C194.523 13.6445 194.762 12.9961 195.066 12.3711C195.379 11.7461 195.75 11.1602 196.18 10.6133C196.617 10.0664 197.098 9.58984 197.621 9.18359C198.762 8.30859 199.945 7.87109 201.172 7.87109C202.781 7.87109 203.871 8.57812 204.441 9.99219C204.848 11.0156 204.871 12.2539 204.512 13.707C204.184 15.043 203.582 16.2695 202.707 17.3867C201.84 18.5039 200.816 19.2969 199.637 19.7656C199.043 20 198.457 20.1172 197.879 20.1172C197.309 20.1172 196.797 20.043 196.344 19.8945C195.898 19.7461 195.512 19.5156 195.184 19.2031ZM197.422 13.5195C197.188 14.0977 197 14.6914 196.859 15.3008C196.727 15.9102 196.664 16.4883 196.672 17.0352C196.68 17.5742 196.762 18 196.918 18.3125C197.082 18.6172 197.344 18.7695 197.703 18.7695C198.062 18.7695 198.414 18.6484 198.758 18.4062C199.109 18.1562 199.449 17.8281 199.777 17.4219C200.105 17.0156 200.414 16.5469 200.703 16.0156C200.992 15.4844 201.246 14.9297 201.465 14.3516C201.941 13.0938 202.172 11.9766 202.156 11C202.156 10.1406 201.98 9.59375 201.629 9.35938C201.488 9.26562 201.289 9.21875 201.031 9.21875C200.781 9.21875 200.492 9.33594 200.164 9.57031C199.836 9.79688 199.508 10.1055 199.18 10.4961C198.852 10.8867 198.535 11.3438 198.23 11.8672C197.926 12.3906 197.656 12.9414 197.422 13.5195Z" fill="white"/>
</svg>
