<svg width="398" height="50" viewBox="0 0 398 50" fill="none" xmlns="http://www.w3.org/2000/svg">
<path d="M72.1328 22.4766C71.3776 22.4766 69.9974 23.5703 67.9922 25.7578C66.4948 27.4635 65.4076 28.7461 64.7305 29.6055L62.9727 31.832C62.2174 33.2643 61.625 34.4557 61.1953 35.4062L60.1406 37.6719C59.8672 38.2318 59.6263 38.6289 59.418 38.8633C59.2227 39.0846 58.9492 39.1953 58.5977 39.1953C58.2591 39.1953 57.9271 39.1302 57.6016 39C57.2891 38.8828 57.0156 38.7266 56.7812 38.5312C56.2865 38.1146 56.0391 37.6589 56.0391 37.1641C56.0391 36.9688 56.1823 36.5846 56.4688 36.0117L57.2109 34.4297C57.4453 33.9609 57.7188 33.362 58.0312 32.6328L59.125 29.957C60.6615 26.1159 61.4297 23.6354 61.4297 22.5156C61.4297 21.9167 61.2344 21.474 60.8438 21.1875L60.4531 20.9141C60.3229 20.8229 60.2578 20.6667 60.2578 20.4453C60.2578 20.2109 60.3424 19.9896 60.5117 19.7812C60.694 19.5729 60.9284 19.3906 61.2148 19.2344C61.8008 18.9349 62.3867 18.7852 62.9727 18.7852C63.5716 18.7852 64.0404 18.8503 64.3789 18.9805C64.7174 19.1107 65.0104 19.2865 65.2578 19.5078C65.7526 19.9635 66 20.4388 66 20.9336C66 21.4284 65.9349 21.9297 65.8047 22.4375C65.6745 22.9323 65.5117 23.4401 65.3164 23.9609C65.1211 24.4688 64.9128 24.9635 64.6914 25.4453C64.1706 26.5651 63.8451 27.2552 63.7148 27.5156C63.5977 27.763 63.5651 27.8542 63.6172 27.7891C66 24.7031 67.4323 22.8802 67.9141 22.3203C68.9167 21.1615 69.6979 20.3672 70.2578 19.9375C71.2865 19.1693 72.2565 18.7852 73.168 18.7852C74.0924 18.7852 74.8281 19.0716 75.375 19.6445C75.9219 20.2174 76.1953 20.9727 76.1953 21.9102C76.1953 22.7305 75.987 23.694 75.5703 24.8008C75.1536 25.9076 74.8737 26.6823 74.7305 27.125L77.6016 23.3359L79.2031 21.4219C80.1667 20.3411 81.013 19.6315 81.7422 19.293C82.4714 18.9544 83.0638 18.7852 83.5195 18.7852C83.9883 18.7852 84.444 18.8698 84.8867 19.0391C85.3424 19.2083 85.7266 19.4492 86.0391 19.7617C86.7031 20.3997 87.0352 21.2461 87.0352 22.3008C87.0352 23.3164 86.8008 24.3581 86.332 25.4258C85.8633 26.4935 85.4531 27.3724 85.1016 28.0625C84.75 28.7396 84.4115 29.4232 84.0859 30.1133C83.1354 32.1836 82.6602 33.7201 82.6602 34.7227C82.6602 35.4258 82.9466 35.7773 83.5195 35.7773C84.0664 35.7773 84.5612 35.6602 85.0039 35.4258C85.4596 35.1914 85.7526 35.0742 85.8828 35.0742C86.1562 35.0742 86.293 35.2109 86.293 35.4844C86.293 36.6432 85.7005 37.6133 84.5156 38.3945C83.7214 38.9284 82.9922 39.1953 82.3281 39.1953C81.6771 39.1953 81.1497 39.1172 80.7461 38.9609C80.3424 38.8047 79.9779 38.5573 79.6523 38.2188C78.9232 37.4635 78.5586 36.5195 78.5586 35.3867C78.5586 34.2539 78.7018 33.2122 78.9883 32.2617C79.2747 31.3112 79.6133 30.3932 80.0039 29.5078C80.3945 28.6094 80.7852 27.7891 81.1758 27.0469C81.5794 26.2917 81.8854 25.6927 82.0938 25.25C82.5104 24.3385 82.7188 23.668 82.7188 23.2383C82.7188 22.7305 82.4518 22.4766 81.918 22.4766C81.2148 22.4766 79.9518 23.6419 78.1289 25.9727C76.7487 27.7826 75.7917 29.0846 75.2578 29.8789L73.9102 31.832C73.1549 33.2643 72.5755 34.4557 72.1719 35.4062L71.1758 37.6719C70.9284 38.2318 70.7135 38.6289 70.5312 38.8633C70.349 39.0846 70.0951 39.1953 69.7695 39.1953C69.444 39.1953 69.125 39.1432 68.8125 39.0391C68.513 38.9349 68.2526 38.7982 68.0312 38.6289C67.5234 38.2513 67.2695 37.8542 67.2695 37.4375C67.2695 37.0078 67.4062 36.4284 67.6797 35.6992C67.9661 34.957 68.3177 34.1302 68.7344 33.2188L71.4688 27.4375C72.4453 25.2891 72.9336 23.9284 72.9336 23.3555C72.9336 22.7695 72.6667 22.4766 72.1328 22.4766ZM74.0664 27.9844C74.0794 27.9844 74.0859 27.9779 74.0859 27.9648L74.1055 27.9258C74.0794 27.9518 74.0664 27.9714 74.0664 27.9844ZM100.57 14.2148C100.284 14.5143 99.9583 14.7617 99.5938 14.957C99.2292 15.1393 98.8451 15.2565 98.4414 15.3086C98.0378 15.3477 97.6536 15.2826 97.2891 15.1133C96.9375 14.944 96.6315 14.7031 96.3711 14.3906C95.8112 13.7396 95.5312 13.082 95.5312 12.418C95.5312 11.7539 95.6354 11.2591 95.8438 10.9336C96.0651 10.5951 96.3385 10.3216 96.6641 10.1133C97.2891 9.70964 97.875 9.50781 98.4219 9.50781C98.9818 9.50781 99.4115 9.54688 99.7109 9.625C100.023 9.70312 100.31 9.83333 100.57 10.0156C101.208 10.4453 101.527 10.9727 101.527 11.5977C101.527 12.2096 101.436 12.724 101.254 13.1406C101.085 13.5443 100.857 13.9023 100.57 14.2148ZM96.5664 35.3477C96.9049 35.3477 97.0742 35.569 97.0742 36.0117C97.0742 36.5977 96.8073 37.2031 96.2734 37.8281C95.4922 38.7396 94.444 39.1953 93.1289 39.1953C91.6185 39.1953 90.5833 38.5833 90.0234 37.3594C89.8151 36.9297 89.7109 36.4089 89.7109 35.7969C89.7109 35.1849 89.8151 34.5078 90.0234 33.7656C90.2448 33.0104 90.5117 32.2227 90.8242 31.4023C91.1497 30.569 91.5013 29.7292 91.8789 28.8828L92.9141 26.4219C93.6693 24.5859 94.0469 23.375 94.0469 22.7891C94.0469 22.2031 93.9818 21.819 93.8516 21.6367C93.7344 21.4414 93.6042 21.2917 93.4609 21.1875L93.0703 20.9141C92.9401 20.8229 92.875 20.6667 92.875 20.4453C92.875 20.2109 92.9596 19.9896 93.1289 19.7812C93.3112 19.5729 93.5456 19.3906 93.832 19.2344C94.418 18.9349 95.1016 18.7852 95.8828 18.7852C97.7969 18.7852 98.7539 19.2865 98.7539 20.2891C98.7539 21.4609 98.4479 22.8021 97.8359 24.3125C97.224 25.8099 96.7031 27.0208 96.2734 27.9453L95.1016 30.6406C94.2422 32.6198 93.8125 34.0456 93.8125 34.918C93.8125 35.4909 94.099 35.7773 94.6719 35.7773C95.2318 35.7773 95.6549 35.7057 95.9414 35.5625C96.2279 35.4193 96.4362 35.3477 96.5664 35.3477ZM100.531 35.5625C100.531 35.1589 100.616 34.7878 100.785 34.4492C100.967 34.0977 101.189 33.8047 101.449 33.5703C101.996 33.0625 102.569 32.8086 103.168 32.8086C103.689 32.8086 103.949 33.0755 103.949 33.6094C103.949 34.9635 104.398 35.9076 105.297 36.4414C105.622 36.6367 105.961 36.7344 106.312 36.7344C106.664 36.7344 106.964 36.6953 107.211 36.6172C107.458 36.5391 107.686 36.4154 107.895 36.2461C108.363 35.8685 108.598 35.4193 108.598 34.8984C108.598 34.3776 108.48 33.9023 108.246 33.4727C108.012 33.0299 107.719 32.5677 107.367 32.0859L106.254 30.5234C104.691 28.4401 103.91 26.5195 103.91 24.7617C103.91 23.3034 104.529 21.9818 105.766 20.7969C107.172 19.4557 108.975 18.7852 111.176 18.7852C113.103 18.7852 114.607 19.2604 115.688 20.2109C116.573 20.9792 117.016 21.8581 117.016 22.8477C117.016 23.8763 116.625 24.6966 115.844 25.3086C115.141 25.8555 114.438 26.0573 113.734 25.9141C113.422 25.849 113.181 25.6927 113.012 25.4453C112.842 25.1849 112.81 24.8919 112.914 24.5664C113.018 24.2409 113.07 23.9023 113.07 23.5508C113.07 23.1992 113.005 22.8737 112.875 22.5742C112.745 22.2747 112.569 22.0208 112.348 21.8125C111.892 21.3828 111.41 21.168 110.902 21.168C110.408 21.168 109.997 21.2266 109.672 21.3438C109.346 21.4479 109.06 21.6042 108.812 21.8125C108.305 22.2812 108.051 22.8607 108.051 23.5508C108.051 24.2279 108.168 24.8138 108.402 25.3086C108.637 25.8034 108.923 26.2982 109.262 26.793C109.613 27.2878 109.991 27.7891 110.395 28.2969C110.798 28.8047 111.169 29.3385 111.508 29.8984C112.328 31.2135 112.738 32.3724 112.738 33.375C112.738 34.3646 112.53 35.1979 112.113 35.875C111.697 36.5391 111.156 37.112 110.492 37.5938C109.073 38.6484 107.484 39.1758 105.727 39.1758C104.047 39.1758 102.719 38.7721 101.742 37.9648C100.935 37.2878 100.531 36.487 100.531 35.5625ZM132.523 22.4766C131.807 22.4766 130.525 23.5703 128.676 25.7578L127.055 27.75L123.93 31.832C123.174 33.2643 122.582 34.4557 122.152 35.4062L121.098 37.6719C120.824 38.2318 120.583 38.6289 120.375 38.8633C120.18 39.0846 119.906 39.1953 119.555 39.1953C119.216 39.1953 118.884 39.1302 118.559 39C118.246 38.8828 117.973 38.7266 117.738 38.5312C117.243 38.1146 116.996 37.6589 116.996 37.1641C116.996 36.9688 117.133 36.5846 117.406 36.0117L118.188 34.4297C120.622 29.4167 122.829 23.0625 124.809 15.3672C125.538 12.5286 126.065 9.97656 126.391 7.71094C126.534 6.61719 127.068 6.07031 127.992 6.07031C128.591 6.07031 129.086 6.21354 129.477 6.5C130.232 7.0599 130.596 7.65885 130.57 8.29688C130.544 8.9349 130.453 9.65104 130.297 10.4453C130.141 11.2396 129.939 12.1055 129.691 13.043C129.444 13.9674 129.164 14.944 128.852 15.9727C127.992 18.5898 127.354 20.4779 126.938 21.6367C125.661 25.1393 124.874 27.1901 124.574 27.7891C124.77 27.5547 125.023 27.2357 125.336 26.832C127.706 23.7201 129.171 21.8646 129.73 21.2656C130.29 20.6536 130.766 20.1849 131.156 19.8594C131.977 19.1432 133.018 18.7852 134.281 18.7852C135.31 18.7852 136.137 19.1302 136.762 19.8203C137.348 20.4844 137.641 21.2135 137.641 22.0078C137.641 22.7891 137.549 23.4987 137.367 24.1367C137.198 24.7617 136.977 25.3997 136.703 26.0508C136.43 26.7018 136.13 27.3724 135.805 28.0625L134.828 30.1133C133.917 32.1836 133.461 33.7201 133.461 34.7227C133.461 35.4258 133.747 35.7773 134.32 35.7773C134.867 35.7773 135.362 35.6602 135.805 35.4258C136.26 35.1914 136.553 35.0742 136.684 35.0742C136.957 35.0742 137.094 35.2109 137.094 35.4844C137.094 36.6432 136.508 37.6133 135.336 38.3945C134.529 38.9284 133.793 39.1953 133.129 39.1953C132.465 39.1953 131.911 39.1302 131.469 39C131.039 38.8568 130.655 38.6289 130.316 38.3164C129.548 37.6133 129.164 36.5781 129.164 35.2109C129.164 33.7396 129.646 31.8906 130.609 29.6641L132.719 25.1719C133.122 24.3385 133.324 23.681 133.324 23.1992C133.324 22.7174 133.057 22.4766 132.523 22.4766ZM151.195 14.2148C150.909 14.5143 150.583 14.7617 150.219 14.957C149.854 15.1393 149.47 15.2565 149.066 15.3086C148.663 15.3477 148.279 15.2826 147.914 15.1133C147.562 14.944 147.257 14.7031 146.996 14.3906C146.436 13.7396 146.156 13.082 146.156 12.418C146.156 11.7539 146.26 11.2591 146.469 10.9336C146.69 10.5951 146.964 10.3216 147.289 10.1133C147.914 9.70964 148.5 9.50781 149.047 9.50781C149.607 9.50781 150.036 9.54688 150.336 9.625C150.648 9.70312 150.935 9.83333 151.195 10.0156C151.833 10.4453 152.152 10.9727 152.152 11.5977C152.152 12.2096 152.061 12.724 151.879 13.1406C151.71 13.5443 151.482 13.9023 151.195 14.2148ZM147.191 35.3477C147.53 35.3477 147.699 35.569 147.699 36.0117C147.699 36.5977 147.432 37.2031 146.898 37.8281C146.117 38.7396 145.069 39.1953 143.754 39.1953C142.243 39.1953 141.208 38.5833 140.648 37.3594C140.44 36.9297 140.336 36.4089 140.336 35.7969C140.336 35.1849 140.44 34.5078 140.648 33.7656C140.87 33.0104 141.137 32.2227 141.449 31.4023C141.775 30.569 142.126 29.7292 142.504 28.8828L143.539 26.4219C144.294 24.5859 144.672 23.375 144.672 22.7891C144.672 22.2031 144.607 21.819 144.477 21.6367C144.359 21.4414 144.229 21.2917 144.086 21.1875L143.695 20.9141C143.565 20.8229 143.5 20.6667 143.5 20.4453C143.5 20.2109 143.585 19.9896 143.754 19.7812C143.936 19.5729 144.171 19.3906 144.457 19.2344C145.043 18.9349 145.727 18.7852 146.508 18.7852C148.422 18.7852 149.379 19.2865 149.379 20.2891C149.379 21.4609 149.073 22.8021 148.461 24.3125C147.849 25.8099 147.328 27.0208 146.898 27.9453L145.727 30.6406C144.867 32.6198 144.438 34.0456 144.438 34.918C144.438 35.4909 144.724 35.7773 145.297 35.7773C145.857 35.7773 146.28 35.7057 146.566 35.5625C146.853 35.4193 147.061 35.3477 147.191 35.3477ZM166.82 22.4766C166.065 22.4766 164.685 23.5703 162.68 25.7578C161.182 27.4635 160.095 28.7461 159.418 29.6055L157.66 31.832C156.905 33.2643 156.312 34.4557 155.883 35.4062L154.828 37.6719C154.555 38.2318 154.314 38.6289 154.105 38.8633C153.91 39.0846 153.637 39.1953 153.285 39.1953C152.947 39.1953 152.615 39.1302 152.289 39C151.977 38.8828 151.703 38.7266 151.469 38.5312C150.974 38.1146 150.727 37.6589 150.727 37.1641C150.727 36.9688 150.87 36.5846 151.156 36.0117L151.898 34.4297C152.133 33.9609 152.406 33.362 152.719 32.6328L153.812 29.957C155.349 26.1159 156.117 23.6354 156.117 22.5156C156.117 21.9167 155.922 21.474 155.531 21.1875L155.141 20.9141C155.01 20.8229 154.945 20.6667 154.945 20.4453C154.945 20.2109 155.03 19.9896 155.199 19.7812C155.382 19.5729 155.616 19.3906 155.902 19.2344C156.488 18.9349 157.074 18.7852 157.66 18.7852C158.259 18.7852 158.728 18.8503 159.066 18.9805C159.405 19.1107 159.698 19.2865 159.945 19.5078C160.44 19.9635 160.688 20.4388 160.688 20.9336C160.688 21.4284 160.622 21.9297 160.492 22.4375C160.362 22.9323 160.199 23.4401 160.004 23.9609C159.809 24.4688 159.6 24.9635 159.379 25.4453C158.858 26.5651 158.533 27.2552 158.402 27.5156C158.285 27.763 158.253 27.8542 158.305 27.7891C160.688 24.7031 162.12 22.8802 162.602 22.3203C163.604 21.1615 164.385 20.3672 164.945 19.9375C165.974 19.1693 166.944 18.7852 167.855 18.7852C168.78 18.7852 169.516 19.0716 170.062 19.6445C170.609 20.2174 170.883 20.9727 170.883 21.9102C170.883 22.7305 170.674 23.694 170.258 24.8008C169.841 25.9076 169.561 26.6823 169.418 27.125L172.289 23.3359L173.891 21.4219C174.854 20.3411 175.701 19.6315 176.43 19.293C177.159 18.9544 177.751 18.7852 178.207 18.7852C178.676 18.7852 179.132 18.8698 179.574 19.0391C180.03 19.2083 180.414 19.4492 180.727 19.7617C181.391 20.3997 181.723 21.2461 181.723 22.3008C181.723 23.3164 181.488 24.3581 181.02 25.4258C180.551 26.4935 180.141 27.3724 179.789 28.0625C179.438 28.7396 179.099 29.4232 178.773 30.1133C177.823 32.1836 177.348 33.7201 177.348 34.7227C177.348 35.4258 177.634 35.7773 178.207 35.7773C178.754 35.7773 179.249 35.6602 179.691 35.4258C180.147 35.1914 180.44 35.0742 180.57 35.0742C180.844 35.0742 180.98 35.2109 180.98 35.4844C180.98 36.6432 180.388 37.6133 179.203 38.3945C178.409 38.9284 177.68 39.1953 177.016 39.1953C176.365 39.1953 175.837 39.1172 175.434 38.9609C175.03 38.8047 174.665 38.5573 174.34 38.2188C173.611 37.4635 173.246 36.5195 173.246 35.3867C173.246 34.2539 173.389 33.2122 173.676 32.2617C173.962 31.3112 174.301 30.3932 174.691 29.5078C175.082 28.6094 175.473 27.7891 175.863 27.0469C176.267 26.2917 176.573 25.6927 176.781 25.25C177.198 24.3385 177.406 23.668 177.406 23.2383C177.406 22.7305 177.139 22.4766 176.605 22.4766C175.902 22.4766 174.639 23.6419 172.816 25.9727C171.436 27.7826 170.479 29.0846 169.945 29.8789L168.598 31.832C167.842 33.2643 167.263 34.4557 166.859 35.4062L165.863 37.6719C165.616 38.2318 165.401 38.6289 165.219 38.8633C165.036 39.0846 164.783 39.1953 164.457 39.1953C164.132 39.1953 163.812 39.1432 163.5 39.0391C163.201 38.9349 162.94 38.7982 162.719 38.6289C162.211 38.2513 161.957 37.8542 161.957 37.4375C161.957 37.0078 162.094 36.4284 162.367 35.6992C162.654 34.957 163.005 34.1302 163.422 33.2188L166.156 27.4375C167.133 25.2891 167.621 23.9284 167.621 23.3555C167.621 22.7695 167.354 22.4766 166.82 22.4766ZM168.754 27.9844C168.767 27.9844 168.773 27.9779 168.773 27.9648L168.793 27.9258C168.767 27.9518 168.754 27.9714 168.754 27.9844ZM199.789 33.8047C199.789 35.0026 200.212 35.6016 201.059 35.6016C201.645 35.6016 202.126 35.5104 202.504 35.3281C202.895 35.1458 203.155 35.0547 203.285 35.0547C203.559 35.0547 203.695 35.1979 203.695 35.4844C203.695 36.6042 203.109 37.5677 201.938 38.375C200.701 39.2214 199.438 39.4297 198.148 39C197.302 38.7005 196.677 38.056 196.273 37.0664C196.078 36.5586 195.98 36.0964 195.98 35.6797C195.98 35.0026 196.046 34.2865 196.176 33.5312C194.965 36.0052 193.461 37.7109 191.664 38.6484C190.948 39.013 190.186 39.1953 189.379 39.1953C188.572 39.1953 187.868 39.0326 187.27 38.707C186.684 38.3685 186.182 37.9062 185.766 37.3203C184.919 36.0964 184.535 34.5599 184.613 32.7109C184.691 30.3932 185.375 28.1211 186.664 25.8945C187.849 23.8112 189.346 22.112 191.156 20.7969C192.966 19.4557 194.659 18.7852 196.234 18.7852C197.81 18.7852 199.079 19.5078 200.043 20.9531C200.941 19.5078 201.736 18.7852 202.426 18.7852C203.168 18.7852 203.728 18.9219 204.105 19.1953C204.822 19.7161 205.076 20.1719 204.867 20.5625C201.599 27.2552 199.919 31.4219 199.828 33.0625C199.802 33.2969 199.789 33.5443 199.789 33.8047ZM188.949 33.8828C188.949 35.4453 189.451 36.2266 190.453 36.2266C191.221 36.2266 192.165 35.5755 193.285 34.2734C194.926 32.3594 196.378 29.7812 197.641 26.5391C198.044 25.5234 198.383 24.5078 198.656 23.4922C198.604 22.6068 198.233 21.9557 197.543 21.5391C197.309 21.3958 196.957 21.3242 196.488 21.3242C196.033 21.3242 195.492 21.4935 194.867 21.832C194.255 22.1706 193.656 22.6328 193.07 23.2188C192.497 23.8047 191.957 24.5013 191.449 25.3086C190.954 26.1029 190.518 26.9688 190.141 27.9062C189.346 29.9115 188.949 31.9036 188.949 33.8828ZM214.281 15.3281C213.852 15.6536 213.415 15.9141 212.973 16.1094C212.53 16.2917 212.074 16.3828 211.605 16.3828C211.137 16.3828 210.876 16.2331 210.824 15.9336C210.798 15.7643 210.909 15.5365 211.156 15.25L211.996 14.3906C213.09 13.2708 213.637 12.2812 213.637 11.4219C213.637 10.6406 213.474 9.98958 213.148 9.46875C212.823 8.9349 212.602 8.55729 212.484 8.33594C212.38 8.11458 212.406 7.82161 212.562 7.45703C212.719 7.07943 213.025 6.75391 213.48 6.48047C213.949 6.20703 214.548 6.07031 215.277 6.07031C216.007 6.07031 216.586 6.39583 217.016 7.04688C217.445 7.6849 217.66 8.39453 217.66 9.17578C217.66 9.95703 217.562 10.6211 217.367 11.168C217.185 11.7018 216.938 12.2227 216.625 12.7305C216.326 13.2383 215.967 13.7135 215.551 14.1562C215.147 14.599 214.724 14.9896 214.281 15.3281ZM216.195 35.5625C216.195 35.1589 216.28 34.7878 216.449 34.4492C216.632 34.0977 216.853 33.8047 217.113 33.5703C217.66 33.0625 218.233 32.8086 218.832 32.8086C219.353 32.8086 219.613 33.0755 219.613 33.6094C219.613 34.9635 220.062 35.9076 220.961 36.4414C221.286 36.6367 221.625 36.7344 221.977 36.7344C222.328 36.7344 222.628 36.6953 222.875 36.6172C223.122 36.5391 223.35 36.4154 223.559 36.2461C224.027 35.8685 224.262 35.4193 224.262 34.8984C224.262 34.3776 224.145 33.9023 223.91 33.4727C223.676 33.0299 223.383 32.5677 223.031 32.0859L221.918 30.5234C220.355 28.4401 219.574 26.5195 219.574 24.7617C219.574 23.3034 220.193 21.9818 221.43 20.7969C222.836 19.4557 224.639 18.7852 226.84 18.7852C228.767 18.7852 230.271 19.2604 231.352 20.2109C232.237 20.9792 232.68 21.8581 232.68 22.8477C232.68 23.8763 232.289 24.6966 231.508 25.3086C230.805 25.8555 230.102 26.0573 229.398 25.9141C229.086 25.849 228.845 25.6927 228.676 25.4453C228.507 25.1849 228.474 24.8919 228.578 24.5664C228.682 24.2409 228.734 23.9023 228.734 23.5508C228.734 23.1992 228.669 22.8737 228.539 22.5742C228.409 22.2747 228.233 22.0208 228.012 21.8125C227.556 21.3828 227.074 21.168 226.566 21.168C226.072 21.168 225.661 21.2266 225.336 21.3438C225.01 21.4479 224.724 21.6042 224.477 21.8125C223.969 22.2812 223.715 22.8607 223.715 23.5508C223.715 24.2279 223.832 24.8138 224.066 25.3086C224.301 25.8034 224.587 26.2982 224.926 26.793C225.277 27.2878 225.655 27.7891 226.059 28.2969C226.462 28.8047 226.833 29.3385 227.172 29.8984C227.992 31.2135 228.402 32.3724 228.402 33.375C228.402 34.3646 228.194 35.1979 227.777 35.875C227.361 36.5391 226.82 37.112 226.156 37.5938C224.737 38.6484 223.148 39.1758 221.391 39.1758C219.711 39.1758 218.383 38.7721 217.406 37.9648C216.599 37.2878 216.195 36.487 216.195 35.5625ZM249.887 37.1445C249.861 37.3398 249.574 38.3685 249.027 40.2305C248.493 42.0924 248.044 43.5703 247.68 44.6641C246.859 47.112 246.182 48.6354 245.648 49.2344C245.219 49.7031 244.698 49.9375 244.086 49.9375C243.344 49.9375 242.777 49.5729 242.387 48.8438C242.27 48.6354 242.211 48.401 242.211 48.1406C242.211 47.8932 242.406 47.3464 242.797 46.5C243.826 44.3516 245.199 40.1198 246.918 33.8047C247.608 31.3047 248.064 29.6055 248.285 28.707L248.91 26.2656C249.314 24.651 249.548 23.5573 249.613 22.9844C249.691 22.3984 249.659 21.9883 249.516 21.7539C249.372 21.5065 249.21 21.3242 249.027 21.207C248.845 21.0768 248.676 20.9661 248.52 20.875C248.363 20.7839 248.298 20.6211 248.324 20.3867C248.35 20.1393 248.454 19.918 248.637 19.7227C248.832 19.5143 249.073 19.3385 249.359 19.1953C249.945 18.9219 250.531 18.7852 251.117 18.7852C251.716 18.7852 252.185 18.8568 252.523 19C252.862 19.1432 253.142 19.3385 253.363 19.5859C253.832 20.0938 254.04 20.5885 253.988 21.0703C253.858 22.0729 253.715 22.9323 253.559 23.6484C255.837 20.4062 258.201 18.7852 260.648 18.7852C262.875 18.7852 264.366 19.9375 265.121 22.2422C265.382 23.0495 265.512 24.0326 265.512 25.1914C265.512 26.3503 265.336 27.5156 264.984 28.6875C264.633 29.8464 264.158 30.9466 263.559 31.9883C262.96 33.0299 262.263 33.9935 261.469 34.8789C260.674 35.7513 259.835 36.513 258.949 37.1641C257.074 38.5182 255.303 39.1953 253.637 39.1953C251.97 39.1953 250.72 38.5117 249.887 37.1445ZM252.895 28.8242C252.426 29.7357 252.042 30.6471 251.742 31.5586C251.456 32.4701 251.312 33.3034 251.312 34.0586C251.312 34.8138 251.475 35.4388 251.801 35.9336C252.126 36.4154 252.608 36.6562 253.246 36.6562C253.884 36.6562 254.516 36.487 255.141 36.1484C255.779 35.7969 256.391 35.3281 256.977 34.7422C257.576 34.1562 258.129 33.4727 258.637 32.6914C259.158 31.8971 259.607 31.0573 259.984 30.1719C260.805 28.2448 261.215 26.4154 261.215 24.6836C261.215 23.7461 261.091 23.0169 260.844 22.4961C260.596 21.9753 260.212 21.7148 259.691 21.7148C259.184 21.7148 258.65 21.9167 258.09 22.3203C257.53 22.7109 256.944 23.2383 256.332 23.9023C255.72 24.5534 255.115 25.3086 254.516 26.168C253.917 27.0143 253.376 27.8997 252.895 28.8242ZM270.238 37.6719C269.691 37.151 269.262 36.4935 268.949 35.6992C268.637 34.8919 268.474 33.9414 268.461 32.8477C268.448 31.7539 268.578 30.6471 268.852 29.5273C269.138 28.4076 269.535 27.3268 270.043 26.2852C270.564 25.2435 271.182 24.2669 271.898 23.3555C272.628 22.444 273.428 21.6497 274.301 20.9727C276.202 19.5143 278.174 18.7852 280.219 18.7852C282.901 18.7852 284.717 19.9635 285.668 22.3203C286.345 24.026 286.384 26.0898 285.785 28.5117C285.238 30.7383 284.236 32.7826 282.777 34.6445C281.332 36.5065 279.626 37.8281 277.66 38.6094C276.671 39 275.694 39.1953 274.73 39.1953C273.78 39.1953 272.927 39.0716 272.172 38.8242C271.43 38.5768 270.785 38.1927 270.238 37.6719ZM273.969 28.1992C273.578 29.1628 273.266 30.1523 273.031 31.168C272.81 32.1836 272.706 33.1471 272.719 34.0586C272.732 34.957 272.868 35.6667 273.129 36.1875C273.402 36.6953 273.839 36.9492 274.438 36.9492C275.036 36.9492 275.622 36.7474 276.195 36.3438C276.781 35.9271 277.348 35.3802 277.895 34.7031C278.441 34.026 278.956 33.2448 279.438 32.3594C279.919 31.474 280.342 30.5495 280.707 29.5859C281.501 27.4896 281.885 25.6276 281.859 24C281.859 22.5677 281.566 21.6562 280.98 21.2656C280.746 21.1094 280.414 21.0312 279.984 21.0312C279.568 21.0312 279.086 21.2266 278.539 21.6172C277.992 21.9948 277.445 22.5091 276.898 23.1602C276.352 23.8112 275.824 24.5729 275.316 25.4453C274.809 26.3177 274.359 27.2357 273.969 28.1992ZM289.086 38.5312C288.826 38.3359 288.617 38.1211 288.461 37.8867C288.305 37.6393 288.22 37.431 288.207 37.2617C288.194 37.0794 288.227 36.8646 288.305 36.6172C288.396 36.3568 288.513 36.0443 288.656 35.6797C291.312 29.1432 292.641 24.7552 292.641 22.5156C292.602 21.8906 292.387 21.4479 291.996 21.1875L291.605 20.9141C291.488 20.8229 291.423 20.6667 291.41 20.4453C291.41 20.2109 291.495 19.9896 291.664 19.7812C291.833 19.5729 292.055 19.3906 292.328 19.2344C292.888 18.9349 293.461 18.7852 294.047 18.7852C294.646 18.7852 295.108 18.8503 295.434 18.9805C295.772 19.1107 296.059 19.2865 296.293 19.5078C296.788 19.9766 297.035 20.4714 297.035 20.9922C297.048 21.513 296.99 22.0404 296.859 22.5742C296.742 23.1081 296.599 23.6354 296.43 24.1562C296.26 24.6641 296.091 25.1523 295.922 25.6211C295.753 26.0768 295.642 26.4154 295.59 26.6367C295.486 27.0924 295.447 27.3789 295.473 27.4961C295.785 27.2227 295.974 26.9557 296.039 26.6953L296.801 25.25C298.493 22.2031 300.147 20.1849 301.762 19.1953C302.23 18.9219 302.79 18.7852 303.441 18.7852C304.105 18.7852 304.639 19.0195 305.043 19.4883C305.447 19.944 305.655 20.4518 305.668 21.0117C305.694 21.5716 305.655 22.0404 305.551 22.418C305.46 22.7826 305.316 23.1276 305.121 23.4531C304.691 24.1823 304.171 24.5469 303.559 24.5469C303.389 24.5469 303.233 24.4883 303.09 24.3711L302.66 24C302.23 23.6224 301.814 23.4336 301.41 23.4336C301.02 23.4336 300.538 23.694 299.965 24.2148C299.405 24.7357 298.819 25.4062 298.207 26.2266C296.15 28.9479 294.47 31.9948 293.168 35.3672L292.309 37.6328C292.087 38.1927 291.892 38.5964 291.723 38.8438C291.553 39.0781 291.299 39.1953 290.961 39.1953C290.635 39.1953 290.303 39.1302 289.965 39C289.639 38.8828 289.346 38.7266 289.086 38.5312ZM316.703 33.8828C317.081 33.8828 317.27 34.1367 317.27 34.6445C317.27 35.0742 317.139 35.4909 316.879 35.8945C316.527 36.6497 315.824 37.3659 314.77 38.043C313.572 38.8112 312.367 39.1953 311.156 39.1953C309.06 39.1953 307.732 38.2578 307.172 36.3828C306.508 34.1562 307.504 29.4362 310.16 22.2227C308.663 22.0924 307.849 21.832 307.719 21.4414C307.68 21.3242 307.66 21.2005 307.66 21.0703C307.66 20.9271 307.719 20.7643 307.836 20.582C307.966 20.3997 308.129 20.224 308.324 20.0547C308.78 19.6771 309.242 19.4883 309.711 19.4883H311.254C312.66 16.194 313.663 14.319 314.262 13.8633C314.548 13.6549 314.867 13.5508 315.219 13.5508C315.57 13.5508 315.863 13.5964 316.098 13.6875C316.332 13.7786 316.54 13.9089 316.723 14.0781C317.139 14.4688 317.348 14.9049 317.348 15.3867C317.348 15.6471 317.27 15.9466 317.113 16.2852L315.668 19.4297H316.137C316.944 19.4297 317.595 19.4232 318.09 19.4102C318.09 19.4102 318.461 19.4036 319.203 19.3906C319.451 19.3776 319.757 19.3711 320.121 19.3711C320.499 19.3711 320.688 19.5078 320.688 19.7812C320.688 21.5 318.656 22.3594 314.594 22.3594H314.438L313.109 25.7969C311.612 29.8594 310.863 32.7044 310.863 34.332C310.863 34.7878 310.967 35.1458 311.176 35.4062C311.384 35.6536 311.775 35.7773 312.348 35.7773C312.921 35.7773 313.441 35.6797 313.91 35.4844C314.379 35.2891 314.789 35.0742 315.141 34.8398C315.492 34.5924 315.792 34.3711 316.039 34.1758C316.299 33.9805 316.521 33.8828 316.703 33.8828ZM317.504 43.2969C317.504 43.0234 317.712 42.4766 318.129 41.6562C318.533 40.849 318.975 39.8138 319.457 38.5508C319.952 37.2878 320.421 35.9727 320.863 34.6055C321.306 33.2383 321.755 31.7734 322.211 30.2109L323.734 25.0547L321.703 25.6016C321.195 25.6016 320.779 25.3346 320.453 24.8008C320.375 24.6576 320.336 24.4883 320.336 24.293C320.336 24.0977 320.492 23.8698 320.805 23.6094C321.117 23.3359 321.501 23.082 321.957 22.8477C322.868 22.3789 323.806 22.0208 324.77 21.7734L324.945 21.2266C325.297 20.1328 325.629 19 325.941 17.8281C326.267 16.6432 326.605 15.4909 326.957 14.3711C327.322 13.2513 327.732 12.1901 328.188 11.1875C328.643 10.1719 329.177 9.28646 329.789 8.53125C331.143 6.89062 332.842 6.07031 334.887 6.07031C336.397 6.07031 337.595 6.47396 338.48 7.28125C339.366 8.08854 339.809 9.18229 339.809 10.5625C339.809 11.9948 339.398 13.2383 338.578 14.293C337.888 15.1654 337.12 15.6016 336.273 15.6016C335.219 15.6016 334.503 15.1198 334.125 14.1562C334.021 13.9089 333.969 13.7005 333.969 13.5312C333.969 13.2448 334.164 12.9844 334.555 12.75C335.271 12.2031 335.772 11.474 336.059 10.5625C336.15 10.276 336.195 9.99609 336.195 9.72266C336.195 8.65495 335.779 8.12109 334.945 8.12109C333.799 8.12109 332.745 9.41667 331.781 12.0078C331.495 12.8021 331.208 13.6745 330.922 14.625L329.086 20.8555C330.271 20.6732 331.13 20.582 331.664 20.582C332.211 20.582 332.693 20.6471 333.109 20.7773C333.526 20.8945 333.904 21.0638 334.242 21.2852C335.01 21.793 335.395 22.418 335.395 23.1602C335.395 23.9023 335.03 24.2734 334.301 24.2734L331.82 24.1758C330.466 24.1758 329.216 24.2344 328.07 24.3516L326.469 30.0156C325.414 33.8568 324.555 36.6497 323.891 38.3945C323.24 40.1393 322.602 41.6172 321.977 42.8281C321.391 43.9349 320.499 44.4883 319.301 44.4883C318.103 44.4883 317.504 44.0911 317.504 43.2969ZM337.27 37.6719C336.723 37.151 336.293 36.4935 335.98 35.6992C335.668 34.8919 335.505 33.9414 335.492 32.8477C335.479 31.7539 335.609 30.6471 335.883 29.5273C336.169 28.4076 336.566 27.3268 337.074 26.2852C337.595 25.2435 338.214 24.2669 338.93 23.3555C339.659 22.444 340.46 21.6497 341.332 20.9727C343.233 19.5143 345.206 18.7852 347.25 18.7852C349.932 18.7852 351.749 19.9635 352.699 22.3203C353.376 24.026 353.415 26.0898 352.816 28.5117C352.27 30.7383 351.267 32.7826 349.809 34.6445C348.363 36.5065 346.658 37.8281 344.691 38.6094C343.702 39 342.725 39.1953 341.762 39.1953C340.811 39.1953 339.958 39.0716 339.203 38.8242C338.461 38.5768 337.816 38.1927 337.27 37.6719ZM341 28.1992C340.609 29.1628 340.297 30.1523 340.062 31.168C339.841 32.1836 339.737 33.1471 339.75 34.0586C339.763 34.957 339.9 35.6667 340.16 36.1875C340.434 36.6953 340.87 36.9492 341.469 36.9492C342.068 36.9492 342.654 36.7474 343.227 36.3438C343.812 35.9271 344.379 35.3802 344.926 34.7031C345.473 34.026 345.987 33.2448 346.469 32.3594C346.951 31.474 347.374 30.5495 347.738 29.5859C348.533 27.4896 348.917 25.6276 348.891 24C348.891 22.5677 348.598 21.6562 348.012 21.2656C347.777 21.1094 347.445 21.0312 347.016 21.0312C346.599 21.0312 346.117 21.2266 345.57 21.6172C345.023 21.9948 344.477 22.5091 343.93 23.1602C343.383 23.8112 342.855 24.5729 342.348 25.4453C341.84 26.3177 341.391 27.2357 341 28.1992ZM356.996 38.2188C356.671 37.8802 356.404 37.4505 356.195 36.9297C356 36.3958 355.902 35.7839 355.902 35.0938C355.902 34.3906 356.059 33.4531 356.371 32.2812C356.697 31.1094 357.107 29.7747 357.602 28.2773L359.242 23.4141C361.573 16.6432 362.921 11.4089 363.285 7.71094C363.402 6.61719 363.936 6.07031 364.887 6.07031C365.486 6.07031 365.98 6.21354 366.371 6.5C367.126 7.07292 367.491 7.71094 367.465 8.41406C367.439 9.11719 367.315 9.97656 367.094 10.9922C366.872 11.9948 366.586 13.0951 366.234 14.293C365.883 15.4779 365.479 16.7344 365.023 18.0625L362.328 25.9922C360.779 30.4974 360.004 33.4076 360.004 34.7227C360.004 35.4258 360.29 35.7773 360.863 35.7773C361.41 35.7773 361.905 35.6602 362.348 35.4258C362.803 35.1914 363.096 35.0742 363.227 35.0742C363.5 35.0742 363.637 35.2109 363.637 35.4844C363.637 36.6432 363.044 37.6133 361.859 38.3945C361.065 38.9284 360.336 39.1953 359.672 39.1953C359.021 39.1953 358.493 39.1172 358.09 38.9609C357.686 38.8047 357.322 38.5573 356.996 38.2188ZM377.758 14.2148C377.471 14.5143 377.146 14.7617 376.781 14.957C376.417 15.1393 376.033 15.2565 375.629 15.3086C375.225 15.3477 374.841 15.2826 374.477 15.1133C374.125 14.944 373.819 14.7031 373.559 14.3906C372.999 13.7396 372.719 13.082 372.719 12.418C372.719 11.7539 372.823 11.2591 373.031 10.9336C373.253 10.5951 373.526 10.3216 373.852 10.1133C374.477 9.70964 375.062 9.50781 375.609 9.50781C376.169 9.50781 376.599 9.54688 376.898 9.625C377.211 9.70312 377.497 9.83333 377.758 10.0156C378.396 10.4453 378.715 10.9727 378.715 11.5977C378.715 12.2096 378.624 12.724 378.441 13.1406C378.272 13.5443 378.044 13.9023 377.758 14.2148ZM373.754 35.3477C374.092 35.3477 374.262 35.569 374.262 36.0117C374.262 36.5977 373.995 37.2031 373.461 37.8281C372.68 38.7396 371.632 39.1953 370.316 39.1953C368.806 39.1953 367.771 38.5833 367.211 37.3594C367.003 36.9297 366.898 36.4089 366.898 35.7969C366.898 35.1849 367.003 34.5078 367.211 33.7656C367.432 33.0104 367.699 32.2227 368.012 31.4023C368.337 30.569 368.689 29.7292 369.066 28.8828L370.102 26.4219C370.857 24.5859 371.234 23.375 371.234 22.7891C371.234 22.2031 371.169 21.819 371.039 21.6367C370.922 21.4414 370.792 21.2917 370.648 21.1875L370.258 20.9141C370.128 20.8229 370.062 20.6667 370.062 20.4453C370.062 20.2109 370.147 19.9896 370.316 19.7812C370.499 19.5729 370.733 19.3906 371.02 19.2344C371.605 18.9349 372.289 18.7852 373.07 18.7852C374.984 18.7852 375.941 19.2865 375.941 20.2891C375.941 21.4609 375.635 22.8021 375.023 24.3125C374.411 25.8099 373.891 27.0208 373.461 27.9453L372.289 30.6406C371.43 32.6198 371 34.0456 371 34.918C371 35.4909 371.286 35.7773 371.859 35.7773C372.419 35.7773 372.842 35.7057 373.129 35.5625C373.415 35.4193 373.624 35.3477 373.754 35.3477ZM380.473 37.6719C379.926 37.151 379.496 36.4935 379.184 35.6992C378.871 34.8919 378.708 33.9414 378.695 32.8477C378.682 31.7539 378.812 30.6471 379.086 29.5273C379.372 28.4076 379.77 27.3268 380.277 26.2852C380.798 25.2435 381.417 24.2669 382.133 23.3555C382.862 22.444 383.663 21.6497 384.535 20.9727C386.436 19.5143 388.409 18.7852 390.453 18.7852C393.135 18.7852 394.952 19.9635 395.902 22.3203C396.579 24.026 396.618 26.0898 396.02 28.5117C395.473 30.7383 394.47 32.7826 393.012 34.6445C391.566 36.5065 389.861 37.8281 387.895 38.6094C386.905 39 385.928 39.1953 384.965 39.1953C384.014 39.1953 383.161 39.0716 382.406 38.8242C381.664 38.5768 381.02 38.1927 380.473 37.6719ZM384.203 28.1992C383.812 29.1628 383.5 30.1523 383.266 31.168C383.044 32.1836 382.94 33.1471 382.953 34.0586C382.966 34.957 383.103 35.6667 383.363 36.1875C383.637 36.6953 384.073 36.9492 384.672 36.9492C385.271 36.9492 385.857 36.7474 386.43 36.3438C387.016 35.9271 387.582 35.3802 388.129 34.7031C388.676 34.026 389.19 33.2448 389.672 32.3594C390.154 31.474 390.577 30.5495 390.941 29.5859C391.736 27.4896 392.12 25.6276 392.094 24C392.094 22.5677 391.801 21.6562 391.215 21.2656C390.98 21.1094 390.648 21.0312 390.219 21.0312C389.802 21.0312 389.32 21.2266 388.773 21.6172C388.227 21.9948 387.68 22.5091 387.133 23.1602C386.586 23.8112 386.059 24.5729 385.551 25.4453C385.043 26.3177 384.594 27.2357 384.203 28.1992Z" fill="white"/>
<path fill-rule="evenodd" clip-rule="evenodd" d="M26.8206 8.04513C25.449 9.72129 23.6219 9.98984 17.7786 9.36971C9.82276 8.52774 3.86551 12.6494 5.98305 17.5326C7.9688 22.1122 7.95217 27.5156 5.94722 29.2035C3.35884 31.3817 3.34988 35.0234 5.92675 37.6375C8.4179 40.1621 10.8604 40.2335 13.2134 37.8477C14.3841 36.6606 15.6521 36.4258 16.8241 37.1782C17.8182 37.8165 20.5218 38.3471 22.8338 38.3588C25.1458 38.3692 28.4328 39.3059 30.1396 40.4385C39.3173 46.5373 48.779 33.3796 41.2941 24.9274C38.1607 21.3896 36.9541 17.9179 38.5189 16.9371C40.7682 15.5269 39.8841 8.70807 37.2676 7.28748C33.6121 5.30384 28.777 5.65542 26.8206 8.04513ZM35.5121 11.9709C36.0035 13.2682 35.4111 14.777 34.0023 15.8214C32.1842 17.1693 32.0076 17.9335 33.1822 19.3683C34.3811 20.833 34.106 21.3481 31.794 21.9604C28.6157 22.8037 29.766 24.8444 33.8475 25.6034C39.8547 26.7204 39.5988 34.6342 33.5264 35.5501C31.556 35.8472 30.1332 34.8326 28.539 31.9915C25.9647 27.4054 23.8319 28.2274 23.8319 31.9468C23.8319 34.7439 20.2096 34.1619 16.8228 31.9889C15.574 31.1871 14.3521 31.6594 12.8718 33.512C11.6729 35.013 10.0735 35.7862 9.24188 35.2647C6.89404 33.7935 7.50819 30.4165 10.2552 29.6887C12.2499 29.1594 12.6056 28.2668 12.0145 25.2686C11.5488 22.9062 11.8072 21.5128 12.7131 21.5128C13.5051 21.5128 14.1525 20.929 14.1525 20.2155C14.1525 19.502 13.3503 18.9182 12.3702 18.9182C9.97374 18.9182 8.8849 15.6969 10.6698 13.8871C12.859 11.6673 14.5813 12.5127 16.7948 15.7301C18.8023 18.6491 19.9935 18.9734 19.9935 15.0814C20.0715 11.637 25.6678 10.9447 25.6678 14.3775C25.6678 15.4478 26.2436 16.3235 26.9473 16.3235C27.651 16.3235 28.2268 15.2532 28.2268 13.9454C28.2268 9.49815 33.9857 7.93615 35.5121 11.9709Z" fill="url(#paint0_linear_88_58)"/>
<path d="M20.1332 20.9194C20.1332 21.3732 20.0113 21.7612 19.8406 22.0208C19.6672 22.2845 19.4846 22.3654 19.3537 22.3654C19.2228 22.3654 19.0402 22.2845 18.8668 22.0208C18.6961 21.7612 18.5742 21.3732 18.5742 20.9194C18.5742 20.4656 18.6961 20.0777 18.8668 19.8181C19.0402 19.5543 19.2228 19.4734 19.3537 19.4734C19.4846 19.4734 19.6672 19.5543 19.8406 19.8181C20.0113 20.0777 20.1332 20.4656 20.1332 20.9194Z" fill="white" stroke="white"/>
<path d="M25.2511 20.9194C25.2511 21.3732 25.1292 21.7612 24.9586 22.0208C24.7852 22.2845 24.6025 22.3654 24.4716 22.3654C24.3408 22.3654 24.1581 22.2845 23.9847 22.0208C23.814 21.7612 23.6921 21.3732 23.6921 20.9194C23.6921 20.4656 23.814 20.0777 23.9847 19.8181C24.1581 19.5543 24.3408 19.4734 24.4716 19.4734C24.6025 19.4734 24.7852 19.5543 24.9586 19.8181C25.1292 20.0777 25.2511 20.4656 25.2511 20.9194Z" fill="white" stroke="white"/>
<path d="M15.5153 25.4601C16.7947 26.325 19.3537 28.0548 21.9127 28.0548C24.4716 28.0548 27.0306 26.325 28.31 25.4601" stroke="white" stroke-linecap="round"/>
<defs>
<linearGradient id="paint0_linear_88_58" x1="4.63974" y1="41.0282" x2="44.1385" y2="6.54363" gradientUnits="userSpaceOnUse">
<stop stop-color="#DDFF7C"/>
<stop offset="0.25" stop-color="#FCB600"/>
<stop offset="0.5" stop-color="#FF3D00"/>
<stop offset="0.75" stop-color="#FF00B8"/>
<stop offset="1" stop-color="#FA00FF"/>
</linearGradient>
</defs>
</svg>
