<svg width="120" height="120" viewBox="0 0 120 120" fill="none" xmlns="http://www.w3.org/2000/svg">
<g clip-path="url(#clip0_452_497)">
<path fill-rule="evenodd" clip-rule="evenodd" d="M89.143 16C83.0886 16 77.9687 20.1668 76.4894 25.761L74.8606 25.0042C74.57 24.8691 74.2535 24.7991 73.933 24.7991C73.6126 24.7991 73.2961 24.8691 73.0055 25.0042L46.0661 37.5186L19.1266 25.005C18.7914 24.8494 18.4224 24.7807 18.0536 24.8052C17.6849 24.8298 17.3282 24.9469 17.0166 25.1457C16.7051 25.3445 16.4486 25.6186 16.2709 25.9427C16.0932 26.2668 16.0001 26.6304 16 27V88.8526C15.9999 89.272 16.1197 89.6827 16.3453 90.0364C16.5709 90.39 16.8929 90.6717 17.2734 90.8484L45.1394 103.792C45.43 103.927 45.7465 103.997 46.067 103.997C46.3874 103.997 46.7039 103.927 46.9945 103.792L73.9339 91.2787L100.873 103.792C102.332 104.469 104 103.405 104 101.798V39.9457C104 39.5262 103.88 39.1155 103.655 38.7619C103.429 38.4083 103.107 38.1265 102.727 37.9498L99.8842 36.6281L100.774 35.1127C100.976 34.7458 101.137 34.355 101.276 33.9555C101.912 32.402 102.239 30.7396 102.24 29.061C102.24 21.8828 96.3422 16 89.143 16ZM89.143 22.1186C93.0194 22.1186 96.102 25.1951 96.102 29.061C96.102 32.9259 93.0194 35.9998 89.143 35.9998C85.2666 35.9998 82.1839 32.9259 82.1839 29.061C82.1839 25.1951 85.2666 22.1186 89.143 22.1186ZM74.9169 29.882L76.1286 30.4461C76.364 32.6452 77.1594 34.7473 78.4386 36.5515L87.5449 52.2947C88.8209 53.9614 89.6692 53.6446 90.7296 52.2067L97.6438 40.4385L99.6 41.3484V98.3504L75.2434 87.0362L75.0445 52.1214C75.4035 52.1988 75.7617 52.2736 76.1216 52.359L76.9312 48.9349C76.2977 48.7851 75.6617 48.6463 75.0234 48.5186L74.9169 29.882ZM72.2786 30.1935L72.3798 48.0892C71.471 47.9648 70.5569 47.8823 69.6404 47.8419L69.5102 51.3584C70.4676 51.3936 71.433 51.4974 72.401 51.6382L72.6034 87.0442L47.3685 98.7684L47.0438 41.9169L72.2786 30.1935ZM20.4 30.4478L44.402 41.5974L44.7285 98.7508L20.4 87.4481V30.4478ZM65.7578 48.0822C64.5461 48.2995 63.3062 48.6876 62.1516 49.359C60.7705 50.1586 59.6347 51.3212 58.8674 52.7206L61.9492 54.4208C62.4082 53.5848 63.0852 52.8887 63.9081 52.4065L63.9134 52.403L63.9186 52.3994C64.6288 51.9858 65.4745 51.7078 66.38 51.5458L65.7578 48.0822ZM80.4239 49.8694L79.4269 53.2434C81.6295 53.8946 83.811 54.6426 85.9802 55.4522L87.2114 52.1539C84.9832 51.3232 82.7234 50.5488 80.4239 49.8694ZM57.5422 56.5539L57.5158 56.693L57.5131 56.7053C57.074 59.1966 57.1206 61.6482 57.2192 63.9785L60.7357 63.8289C60.6398 61.5682 60.6195 59.3805 60.9794 57.3274L61.0006 57.2174L57.5422 56.5539ZM60.9451 67.2987L57.4339 67.5363C57.5923 69.885 57.7613 72.1871 57.7551 74.4443L61.2751 74.4531C61.2822 72.0155 61.1035 69.6325 60.9451 67.2987ZM57.58 77.7619C57.4832 78.6006 57.3389 79.4163 57.1277 80.1995L57.1259 80.2039L57.1242 80.211C56.8162 81.3858 56.2978 82.4734 55.5745 83.3253L58.2558 85.6045C59.3893 84.2713 60.1082 82.7022 60.5262 81.1147L60.528 81.1094C60.792 80.1274 60.9636 79.1382 61.0762 78.1614L57.58 77.7619ZM27.8642 81.1922L26.2837 84.3373C28.4661 85.4346 30.7233 86.3419 32.9963 87.1269L34.1447 83.7996C31.9843 83.0542 29.875 82.2024 27.8642 81.1922ZM37.3998 84.8116L36.4635 88.2049C38.792 88.8482 41.1856 89.3594 43.632 89.6349L44.0245 86.1369C41.806 85.8878 39.5937 85.4179 37.3998 84.8116ZM53.3639 85.0598C51.611 85.9574 49.4946 86.2891 47.3183 86.3155L47.3623 89.8355C49.8562 89.8056 52.5226 89.4448 54.9673 88.1926L53.3639 85.0598Z" fill="black"/>
<path d="M99.15 29.1C99.15 31.3684 98.3984 33.4524 97.1292 35.1288C95.2982 37.5472 92.406 39.1 89.15 39.1C85.894 39.1 83.0017 37.5472 81.1707 35.1288C79.9016 33.4524 79.15 31.3684 79.15 29.1C79.15 23.5772 83.6271 19.1 89.15 19.1C94.6728 19.1 99.15 23.5772 99.15 29.1Z" stroke="#008D5A" stroke-width="6.2"/>
<path d="M87.358 52.412L78.1 36H100.1L90.8419 52.412C90.0767 53.7685 88.1232 53.7685 87.358 52.412Z" fill="#008D5A"/>
</g>
<defs>
<clipPath id="clip0_452_497">
<rect width="88" height="88" fill="white" transform="translate(16 16)"/>
</clipPath>
</defs>
</svg>
