<svg width="88" height="88" viewBox="0 0 88 88" fill="none" xmlns="http://www.w3.org/2000/svg">
<g clip-path="url(#clip0_434_10)">
<path fill-rule="evenodd" clip-rule="evenodd" d="M73.143 0C67.0886 0 61.9687 4.1668 60.4894 9.76096L58.8606 9.00416C58.57 8.86907 58.2535 8.79908 57.933 8.79908C57.6126 8.79908 57.2961 8.86907 57.0055 9.00416L30.0661 21.5186L3.12664 9.00504C2.79143 8.84937 2.4224 8.78065 2.05363 8.80524C1.68486 8.82983 1.32822 8.94693 1.01665 9.14573C0.705072 9.34453 0.448605 9.61862 0.270921 9.9427C0.0932362 10.2668 6.20685e-05 10.6304 5.93344e-08 11V72.8526C-9.73394e-05 73.272 0.119719 73.6827 0.345327 74.0364C0.570934 74.39 0.89293 74.6717 1.27336 74.8484L29.1394 87.7923C29.43 87.9274 29.7465 87.9974 30.067 87.9974C30.3874 87.9974 30.7039 87.9274 30.9945 87.7923L57.9339 75.2787L84.8734 87.7923C86.3315 88.469 88 87.4051 88 85.7982V23.9457C88.0001 23.5262 87.8803 23.1155 87.6547 22.7619C87.4291 22.4083 87.1071 22.1265 86.7266 21.9498L83.8842 20.6281L84.7739 19.1127C84.9763 18.7458 85.1374 18.355 85.2755 17.9555C85.9115 16.402 86.2391 14.7396 86.24 13.061C86.24 5.8828 80.3422 0 73.143 0ZM73.143 6.11864C77.0194 6.11864 80.102 9.19512 80.102 13.061C80.102 16.9259 77.0194 19.9998 73.143 19.9998C69.2666 19.9998 66.1839 16.9259 66.1839 13.061C66.1839 9.19512 69.2666 6.11864 73.143 6.11864ZM58.9169 13.882L60.1286 14.4461C60.364 16.6452 61.1594 18.7473 62.4386 20.5515L71.5449 36.2947C72.8209 37.9614 73.6692 37.6446 74.7296 36.2067L81.6438 24.4385L83.6 25.3484V82.3504L59.2434 71.0362L59.0445 36.1214C59.4035 36.1988 59.7617 36.2736 60.1216 36.359L60.9312 32.9349C60.2977 32.7851 59.6617 32.6463 59.0234 32.5186L58.9169 13.882ZM56.2786 14.1935L56.3798 32.0892C55.471 31.9648 54.5569 31.8823 53.6404 31.8419L53.5102 35.3584C54.4676 35.3936 55.433 35.4974 56.401 35.6382L56.6034 71.0442L31.3685 82.7684L31.0438 25.9169L56.2786 14.1935ZM4.4 14.4478L28.402 25.5974L28.7285 82.7508L4.4 71.4481V14.4478ZM49.7578 32.0822C48.5461 32.2995 47.3062 32.6876 46.1516 33.359C44.7704 34.1587 43.6347 35.3212 42.8674 36.7206L45.9492 38.4208C46.4082 37.5848 47.0852 36.8887 47.9081 36.4065L47.9134 36.403L47.9186 36.3994C48.6288 35.9858 49.4745 35.7078 50.38 35.5458L49.7578 32.0822ZM64.4239 33.8694L63.4269 37.2434C65.6295 37.8946 67.811 38.6426 69.9802 39.4522L71.2114 36.1539C68.9832 35.3232 66.7234 34.5488 64.4239 33.8694ZM41.5422 40.5539L41.5158 40.693L41.5131 40.7053C41.074 43.1966 41.1206 45.6482 41.2192 47.9785L44.7357 47.8289C44.6398 45.5682 44.6195 43.3805 44.9794 41.3274L45.0006 41.2174L41.5422 40.5539ZM44.9451 51.2987L41.4339 51.5363C41.5923 53.885 41.7613 56.1871 41.7551 58.4443L45.2751 58.4531C45.2822 56.0155 45.1035 53.6325 44.9451 51.2987ZM41.58 61.7619C41.4832 62.6006 41.3389 63.4163 41.1277 64.1995L41.1259 64.2039L41.1242 64.211C40.8162 65.3858 40.2978 66.4734 39.5745 67.3253L42.2558 69.6045C43.3893 68.2713 44.1082 66.7022 44.5262 65.1147L44.528 65.1094C44.792 64.1274 44.9636 63.1382 45.0762 62.1614L41.58 61.7619ZM11.8642 65.1922L10.2837 68.3373C12.4661 69.4346 14.7233 70.3419 16.9963 71.1269L18.1447 67.7996C15.9843 67.0542 13.875 66.2024 11.8642 65.1922ZM21.3998 68.8116L20.4635 72.2049C22.792 72.8482 25.1856 73.3594 27.632 73.6349L28.0245 70.1369C25.806 69.8878 23.5937 69.4179 21.3998 68.8116ZM37.3639 69.0598C35.611 69.9574 33.4946 70.2891 31.3183 70.3155L31.3623 73.8355C33.8562 73.8056 36.5226 73.4448 38.9673 72.1926L37.3639 69.0598Z" fill="black"/>
<path d="M63.15 13.1C63.15 7.57715 67.6271 3.1 73.15 3.1C78.6728 3.1 83.15 7.57715 83.15 13.1C83.15 15.3684 82.3984 17.4524 81.1292 19.1288C79.2982 21.5472 76.406 23.1 73.15 23.1C69.894 23.1 67.0017 21.5472 65.1707 19.1288C63.9016 17.4524 63.15 15.3684 63.15 13.1Z" stroke="#008D5A" stroke-width="6.2"/>
<path d="M71.358 36.412L62.1 20H84.1L74.8419 36.412C74.0767 37.7685 72.1232 37.7685 71.358 36.412Z" fill="#008D5A"/>
</g>
<defs>
<clipPath id="clip0_434_10">
<rect width="88" height="88" fill="white"/>
</clipPath>
</defs>
</svg>
