<svg width="120" height="120" viewBox="0 0 120 120" fill="none" xmlns="http://www.w3.org/2000/svg">
<g filter="url(#filter0_d_452_494)">
<path d="M27.2439 26.728C27.2439 25.7737 28.0175 25 28.9719 25H91.1799C92.1342 25 92.9079 25.7737 92.9079 26.728V73.384H27.2439V26.728Z" fill="#D9D9D9"/>
<path d="M27.2439 73.384H92.9079L99.0617 91.8456C99.4347 92.9645 98.6018 94.12 97.4224 94.12H22.7293C21.5499 94.12 20.717 92.9645 21.09 91.8456L27.2439 73.384Z" fill="#D9D9D9"/>
<path d="M92.4759 72.952H27.6759V26.728C27.6759 26.0122 28.2561 25.432 28.9719 25.432H91.1799C91.8956 25.432 92.4759 26.0122 92.4759 26.728V72.952ZM27.5552 73.816H92.5965L98.6519 91.9822C98.9316 92.8214 98.307 93.688 97.4224 93.688H22.7293C21.8447 93.688 21.2201 92.8214 21.4998 91.9822L27.5552 73.816Z" stroke="black" stroke-width="0.864"/>
</g>
<rect x="32.428" y="78.568" width="3.456" height="1.728" fill="black"/>
<rect x="32.428" y="78.568" width="3.456" height="1.728" fill="black"/>
<rect x="32.428" y="78.568" width="3.456" height="1.728" fill="black"/>
<rect x="42.7959" y="78.568" width="3.456" height="1.728" fill="black"/>
<rect x="42.7959" y="78.568" width="3.456" height="1.728" fill="black"/>
<rect x="42.7959" y="78.568" width="3.456" height="1.728" fill="black"/>
<rect x="53.1639" y="78.568" width="3.456" height="1.728" fill="black"/>
<rect x="53.1639" y="78.568" width="3.456" height="1.728" fill="black"/>
<rect x="53.1639" y="78.568" width="3.456" height="1.728" fill="black"/>
<rect x="63.5319" y="78.568" width="3.456" height="1.728" fill="black"/>
<rect x="63.5319" y="78.568" width="3.456" height="1.728" fill="black"/>
<rect x="63.5319" y="78.568" width="3.456" height="1.728" fill="black"/>
<rect x="73.8999" y="78.568" width="3.456" height="1.728" fill="black"/>
<rect x="73.8999" y="78.568" width="3.456" height="1.728" fill="black"/>
<rect x="73.8999" y="78.568" width="3.456" height="1.728" fill="black"/>
<rect x="84.2679" y="78.568" width="3.456" height="1.728" fill="black"/>
<rect x="84.2679" y="78.568" width="3.456" height="1.728" fill="black"/>
<rect x="84.2679" y="78.568" width="3.456" height="1.728" fill="black"/>
<rect x="27.2438" y="85.4799" width="3.456" height="1.728" fill="black"/>
<rect x="27.2438" y="85.4799" width="3.456" height="1.728" fill="black"/>
<rect x="27.2438" y="85.4799" width="3.456" height="1.728" fill="black"/>
<rect x="37.6119" y="85.4799" width="3.456" height="1.728" fill="black"/>
<rect x="37.6119" y="85.4799" width="3.456" height="1.728" fill="black"/>
<rect x="37.6119" y="85.4799" width="3.456" height="1.728" fill="black"/>
<rect x="47.9799" y="85.4799" width="3.456" height="1.728" fill="black"/>
<rect x="47.9799" y="85.4799" width="3.456" height="1.728" fill="black"/>
<rect x="47.9799" y="85.4799" width="3.456" height="1.728" fill="black"/>
<rect x="58.3479" y="85.4799" width="3.456" height="1.728" fill="black"/>
<rect x="58.3479" y="85.4799" width="3.456" height="1.728" fill="black"/>
<rect x="58.3479" y="85.4799" width="3.456" height="1.728" fill="black"/>
<rect x="68.7159" y="85.4799" width="3.456" height="1.728" fill="black"/>
<rect x="68.7159" y="85.4799" width="3.456" height="1.728" fill="black"/>
<rect x="68.7159" y="85.4799" width="3.456" height="1.728" fill="black"/>
<rect x="79.084" y="85.4799" width="3.456" height="1.728" fill="black"/>
<rect x="79.084" y="85.4799" width="3.456" height="1.728" fill="black"/>
<rect x="79.084" y="85.4799" width="3.456" height="1.728" fill="black"/>
<rect x="89.4519" y="85.4799" width="3.456" height="1.728" fill="black"/>
<rect x="89.4519" y="85.4799" width="3.456" height="1.728" fill="black"/>
<rect x="89.4519" y="85.4799" width="3.456" height="1.728" fill="black"/>
<path d="M32.212 29.896H87.94V68.488H32.212V29.896Z" fill="#D9D9D9" stroke="black" stroke-width="1.728"/>
<rect width="1.728" height="1.728" transform="matrix(-1 0 0 1 85.996 31.9119)" fill="black"/>
<rect width="1.728" height="1.728" transform="matrix(-1 0 0 1 85.996 31.9119)" fill="black"/>
<rect width="1.728" height="1.728" transform="matrix(-1 0 0 1 85.996 31.9119)" fill="black"/>
<rect width="1.728" height="1.728" transform="matrix(-1 0 0 1 82.54 31.9119)" fill="black"/>
<rect width="1.728" height="1.728" transform="matrix(-1 0 0 1 82.54 31.9119)" fill="black"/>
<rect width="1.728" height="1.728" transform="matrix(-1 0 0 1 82.54 31.9119)" fill="black"/>
<rect width="1.728" height="1.728" transform="matrix(-1 0 0 1 79.084 31.9119)" fill="black"/>
<rect width="1.728" height="1.728" transform="matrix(-1 0 0 1 79.084 31.9119)" fill="black"/>
<rect width="1.728" height="1.728" transform="matrix(-1 0 0 1 79.084 31.9119)" fill="black"/>
<rect x="32.428" y="30.184" width="55.296" height="5.184" fill="#008D5A"/>
<rect x="32.6873" y="35.6272" width="13.3056" height="32.3136" fill="#008D5A" stroke="#008D5A" stroke-width="0.5184"/>
<rect x="46.5112" y="35.6272" width="40.9536" height="32.3136" fill="white" stroke="white" stroke-width="0.5184"/>
<rect x="34.5001" y="31.5" width="9.8864" height="11.096" fill="white" stroke="black"/>
<path d="M34.6048 43.096C35.008 41.4832 36.4192 38.2576 39.4432 38.2576C42.4672 38.2576 43.7704 41.2631 44.2355 42.9224C44.2522 42.982 44.2676 43.04 44.2816 43.096H34.6048Z" fill="#D9D9D9"/>
<path d="M44.2816 43.096C44.2676 43.04 44.2522 42.982 44.2355 42.9224M44.2816 43.096L44.2355 42.9224M44.2816 43.096H34.6048C35.008 41.4832 36.4192 38.2576 39.4432 38.2576C42.4672 38.2576 43.7704 41.2631 44.2355 42.9224" stroke="black"/>
<circle cx="39.4432" cy="35.2337" r="2.524" fill="#D9D9D9" stroke="black"/>
<rect x="35.884" y="44.824" width="6.912" height="1.728" fill="black"/>
<rect x="35.884" y="44.824" width="6.912" height="1.728" fill="black"/>
<rect x="35.884" y="44.824" width="6.912" height="1.728" fill="black"/>
<rect x="35.884" y="48.28" width="6.912" height="1.728" fill="black"/>
<rect x="35.884" y="48.28" width="6.912" height="1.728" fill="black"/>
<rect x="35.884" y="48.28" width="6.912" height="1.728" fill="black"/>
<path d="M63.2 57C61.5837 58.4115 59.6 59.4 57.35 59.4C53.291 59.4 50 56.175 50 52.2C50 48.225 53.291 45 57.35 45C63.2 45 66.8 52.2 66.8 52.2C66.8 52.2 70.4 59.4 76.25 59.4C80.309 59.4 83.6 56.175 83.6 52.2C83.6 48.225 80.309 45 76.25 45C74.0472 45 72.0005 46.0312 70.4 47.4" stroke="#009C64" stroke-width="3.6" stroke-miterlimit="10" stroke-linecap="round"/>
<defs>
<filter id="filter0_d_452_494" x="21" y="25" width="78.1517" height="70.848" filterUnits="userSpaceOnUse" color-interpolation-filters="sRGB">
<feFlood flood-opacity="0" result="BackgroundImageFix"/>
<feColorMatrix in="SourceAlpha" type="matrix" values="0 0 0 0 0 0 0 0 0 0 0 0 0 0 0 0 0 0 127 0" result="hardAlpha"/>
<feOffset dy="1.728"/>
<feComposite in2="hardAlpha" operator="out"/>
<feColorMatrix type="matrix" values="0 0 0 0 0.0666667 0 0 0 0 0.0463889 0 0 0 0 0.0463889 0 0 0 1 0"/>
<feBlend mode="normal" in2="BackgroundImageFix" result="effect1_dropShadow_452_494"/>
<feBlend mode="normal" in="SourceGraphic" in2="effect1_dropShadow_452_494" result="shape"/>
</filter>
</defs>
</svg>
