<svg width="120" height="120" viewBox="0 0 120 120" fill="none" xmlns="http://www.w3.org/2000/svg">
<g clip-path="url(#clip0_452_493)">
<path d="M81.9267 100.317V88.4834C81.9267 84.2467 83.0367 82.0434 85.2167 78.36C87.8743 73.8605 89.2944 68.738 89.3331 63.5124C89.3717 58.2868 88.0275 53.1439 85.4367 48.6056C82.846 44.0672 79.1009 40.2949 74.5815 37.6712C70.0621 35.0476 64.9291 33.666 59.7034 33.6667C51.8464 33.6676 44.3114 36.7887 38.7551 42.3437C33.1988 47.8988 30.076 55.4331 30.0734 63.29C30.0734 65.2234 30.0734 66.19 29.9934 66.73C29.8 68.0234 29.1934 69.1367 28.6034 70.29L22.6667 81.8034L27.3334 84.1367C28.6834 84.81 29.36 85.1467 29.83 85.77C30.3 86.3934 30.4334 87.1 30.6967 88.5034L30.7234 88.6434C31.3334 91.87 32.0034 95.43 33.89 97.6767C34.5567 98.4667 35.3834 99.11 36.3134 99.5667C37.85 100.317 39.74 100.317 43.52 100.317C45.27 100.317 47.0234 100.357 48.7734 100.317C52.9167 100.213 56 96.7267 56 92.6834" stroke="black" stroke-width="3" stroke-linecap="round" stroke-linejoin="round"/>
<path d="M48.04 62.1067C49.46 62.1067 50.7567 61.5667 51.74 60.6834M48.04 62.1067C48.04 65.9267 50.2533 69.5534 54.5133 69.5534C58.7733 69.5534 60.9867 73.18 60.9867 77M48.04 62.1067C40.8733 62.1067 40.8733 50.9367 48.04 50.9367C48.6933 50.9389 49.3122 51.0445 49.8967 51.2534C49.5467 42.9267 61.55 40.6667 64.27 48.4667M64.27 48.4667C62.2867 49.8034 60.9867 52.0767 60.9867 54.6567M64.27 48.4667C70.4433 44.3 78.67 51.7767 74.7567 58.4434C81.3233 59.4267 80.6233 69.5534 73.9333 69.5534C73.0413 69.553 72.1626 69.337 71.3721 68.9237C70.5816 68.5105 69.9028 67.9123 69.3933 67.18" stroke="#009C64" stroke-width="3" stroke-linecap="round" stroke-linejoin="round"/>
<path d="M59 19L59 27" stroke="#009C64" stroke-width="3" stroke-linecap="round"/>
<path d="M96 58H104" stroke="#009C64" stroke-width="3" stroke-linecap="round"/>
<path d="M16 58H24" stroke="#009C64" stroke-width="3" stroke-linecap="round"/>
<path d="M30 31L35.6569 36.6569" stroke="#009C64" stroke-width="3" stroke-linecap="round"/>
<path d="M84 36.6569L89.6569 31" stroke="#009C64" stroke-width="3" stroke-linecap="round"/>
</g>
<defs>
<clipPath id="clip0_452_493">
<rect width="92" height="85" fill="white" transform="matrix(-1 0 0 1 106 17)"/>
</clipPath>
</defs>
</svg>
