<svg width="92" height="85" viewBox="0 0 92 85" fill="none" xmlns="http://www.w3.org/2000/svg">
<g clip-path="url(#clip0_411_735)">
<path d="M67.9267 83.3167V71.4834C67.9267 67.2467 69.0367 65.0434 71.2167 61.36C73.8743 56.8605 75.2944 51.738 75.3331 46.5124C75.3717 41.2868 74.0275 36.1439 71.4367 31.6056C68.846 27.0672 65.1009 23.2949 60.5815 20.6712C56.0621 18.0476 50.9291 16.666 45.7034 16.6667C37.8464 16.6676 30.3114 19.7887 24.7551 25.3437C19.1988 30.8988 16.076 38.4331 16.0734 46.29C16.0734 48.2234 16.0734 49.19 15.9934 49.73C15.8 51.0234 15.1934 52.1367 14.6034 53.29L8.6667 64.8034L13.3334 67.1367C14.6834 67.81 15.36 68.1467 15.83 68.77C16.3 69.3934 16.4334 70.1 16.6967 71.5034L16.7234 71.6434C17.3334 74.87 18.0034 78.43 19.89 80.6767C20.5567 81.4667 21.3834 82.11 22.3134 82.5667C23.85 83.3167 25.74 83.3167 29.52 83.3167C31.27 83.3167 33.0234 83.3567 34.7734 83.3167C38.9167 83.2134 42 79.7267 42 75.6834" stroke="black" stroke-width="3" stroke-linecap="round" stroke-linejoin="round"/>
<path d="M34.04 45.1067C35.46 45.1067 36.7567 44.5667 37.74 43.6834M34.04 45.1067C34.04 48.9267 36.2533 52.5534 40.5133 52.5534C44.7733 52.5534 46.9867 56.18 46.9867 60M34.04 45.1067C26.8733 45.1067 26.8733 33.9367 34.04 33.9367C34.6933 33.9389 35.3122 34.0445 35.8967 34.2534C35.5467 25.9267 47.55 23.6667 50.27 31.4667M50.27 31.4667C48.2867 32.8034 46.9867 35.0767 46.9867 37.6567M50.27 31.4667C56.4433 27.3 64.67 34.7767 60.7567 41.4434C67.3233 42.4267 66.6233 52.5534 59.9333 52.5534C59.0413 52.553 58.1626 52.337 57.3721 51.9237C56.5816 51.5105 55.9028 50.9123 55.3933 50.18" stroke="#009C64" stroke-width="3" stroke-linecap="round" stroke-linejoin="round"/>
<path d="M45 2L45 10" stroke="#009C64" stroke-width="3" stroke-linecap="round"/>
<path d="M82 41H90" stroke="#009C64" stroke-width="3" stroke-linecap="round"/>
<path d="M2 41H10" stroke="#009C64" stroke-width="3" stroke-linecap="round"/>
<path d="M16 14L21.6569 19.6569" stroke="#009C64" stroke-width="3" stroke-linecap="round"/>
<path d="M70 19.6569L75.6569 14" stroke="#009C64" stroke-width="3" stroke-linecap="round"/>
</g>
<defs>
<clipPath id="clip0_411_735">
<rect width="92" height="85" fill="white" transform="matrix(-1 0 0 1 92 0)"/>
</clipPath>
</defs>
</svg>
