<svg width="120" height="120" viewBox="0 0 120 120" fill="none" xmlns="http://www.w3.org/2000/svg">
<rect x="29" y="5" width="62" height="110" rx="5" fill="black" stroke="black" stroke-width="2"/>
<circle cx="59" cy="105" r="5" fill="#B3B3B3"/>
<path d="M48 9H72" stroke="black" stroke-width="2" stroke-linecap="round"/>
<circle cx="43" cy="9" r="1" fill="#5C5C5C"/>
<rect x="30" y="12" width="60" height="86" fill="#F5F5F5"/>
<rect x="30" y="58" width="60" height="32" fill="#009C64"/>
<path d="M37.5 61H67.5" stroke="white" stroke-width="2" stroke-linecap="round"/>
<path d="M37.5 69H60" stroke="white" stroke-width="2" stroke-linecap="round"/>
<path d="M37.5 77H60" stroke="white" stroke-width="2" stroke-linecap="round"/>
<path d="M37.5 85H60" stroke="white" stroke-width="2" stroke-linecap="round"/>
<rect x="37.5" y="34" width="45" height="16" rx="8" fill="#D9D9D9"/>
<path fill-rule="evenodd" clip-rule="evenodd" d="M76.1311 41.6699C76.1311 42.7157 75.3665 43.3398 74.6905 43.3398C74.0146 43.3398 73.25 42.7157 73.25 41.6699C73.25 40.6241 74.0146 40 74.6905 40C75.3665 40 76.1311 40.6241 76.1311 41.6699ZM76.8282 44.5457C76.2412 45.0429 75.4984 45.3398 74.6905 45.3398C72.7904 45.3398 71.25 43.6968 71.25 41.6699C71.25 39.6431 72.7904 38 74.6905 38C76.5907 38 78.1311 39.6431 78.1311 41.6699C78.1311 42.1377 78.0491 42.5849 77.8995 42.9963L78.0055 42.8833L79.6246 44.6103C80.0023 45.0132 80.0023 45.6665 79.6246 46.0694C79.2468 46.4723 78.6344 46.4723 78.2567 46.0694L76.8282 44.5457Z" fill="#9A9A9A"/>
<path d="M44.9265 23.7827C44.8924 23.4389 44.7461 23.1719 44.4876 22.9815C44.229 22.7912 43.8782 22.696 43.435 22.696C43.1339 22.696 42.8796 22.7386 42.6722 22.8239C42.4648 22.9062 42.3058 23.0213 42.195 23.169C42.087 23.3168 42.033 23.4844 42.033 23.6719C42.0273 23.8281 42.06 23.9645 42.131 24.081C42.2049 24.1974 42.3058 24.2983 42.4336 24.3835C42.5614 24.4659 42.7092 24.5384 42.8768 24.6009C43.0444 24.6605 43.2234 24.7116 43.4137 24.7543L44.1978 24.9418C44.5785 25.027 44.9279 25.1406 45.2461 25.2827C45.5643 25.4247 45.8398 25.5994 46.0728 25.8068C46.3058 26.0142 46.4862 26.2585 46.614 26.5398C46.7447 26.821 46.8114 27.1435 46.8143 27.5071C46.8114 28.0412 46.6751 28.5043 46.4052 28.8963C46.1381 29.2855 45.7518 29.5881 45.2461 29.804C44.7433 30.017 44.1367 30.1236 43.4265 30.1236C42.7219 30.1236 42.1083 30.0156 41.5856 29.7997C41.0657 29.5838 40.6594 29.2642 40.3668 28.8409C40.0771 28.4148 39.9251 27.8878 39.9109 27.2599H41.6964C41.7163 27.5526 41.8001 27.7969 41.9478 27.9929C42.0984 28.1861 42.2987 28.3324 42.5487 28.4318C42.8015 28.5284 43.087 28.5767 43.4052 28.5767C43.7177 28.5767 43.989 28.5312 44.2191 28.4403C44.4521 28.3494 44.6325 28.223 44.7603 28.0611C44.8881 27.8991 44.9521 27.7131 44.9521 27.5028C44.9521 27.3068 44.8938 27.142 44.7773 27.0085C44.6637 26.875 44.4961 26.7614 44.2745 26.6676C44.0558 26.5739 43.7873 26.4886 43.4691 26.4119L42.5188 26.1733C41.783 25.9943 41.2021 25.7145 40.7759 25.3338C40.3498 24.9531 40.1381 24.4403 40.141 23.7955C40.1381 23.267 40.2788 22.8054 40.5629 22.4105C40.8498 22.0156 41.2433 21.7074 41.7433 21.4858C42.2433 21.2642 42.8114 21.1534 43.4478 21.1534C44.0955 21.1534 44.6609 21.2642 45.1438 21.4858C45.6296 21.7074 46.0075 22.0156 46.2773 22.4105C46.5472 22.8054 46.6864 23.2628 46.695 23.7827H44.9265ZM51.0043 30.1278C50.331 30.1278 49.7514 29.9915 49.2656 29.7188C48.7827 29.4432 48.4105 29.054 48.1491 28.5511C47.8878 28.0455 47.7571 27.4474 47.7571 26.7571C47.7571 26.0838 47.8878 25.4929 48.1491 24.9844C48.4105 24.4759 48.7784 24.0795 49.2528 23.7955C49.7301 23.5114 50.2898 23.3693 50.9318 23.3693C51.3636 23.3693 51.7656 23.4389 52.1378 23.5781C52.5128 23.7145 52.8395 23.9205 53.1179 24.196C53.3991 24.4716 53.6179 24.8182 53.7741 25.2358C53.9304 25.6506 54.0085 26.1364 54.0085 26.6932V27.1918H48.4815V26.0668H52.2997C52.2997 25.8054 52.2429 25.5739 52.1293 25.3722C52.0156 25.1705 51.858 25.0128 51.6562 24.8991C51.4574 24.7827 51.2259 24.7244 50.9616 24.7244C50.6861 24.7244 50.4418 24.7884 50.2287 24.9162C50.0185 25.0412 49.8537 25.2102 49.7344 25.4233C49.6151 25.6335 49.554 25.8679 49.5511 26.1264V27.196C49.5511 27.5199 49.6108 27.7997 49.7301 28.0355C49.8523 28.2713 50.0241 28.4531 50.2457 28.581C50.4673 28.7088 50.7301 28.7727 51.0341 28.7727C51.2358 28.7727 51.4205 28.7443 51.5881 28.6875C51.7557 28.6307 51.8991 28.5455 52.0185 28.4318C52.1378 28.3182 52.2287 28.179 52.2912 28.0142L53.9702 28.125C53.8849 28.5284 53.7102 28.8807 53.446 29.1818C53.1847 29.4801 52.8466 29.7131 52.4318 29.8807C52.0199 30.0455 51.544 30.1278 51.0043 30.1278ZM57.0597 30.1236C56.642 30.1236 56.2699 30.0511 55.9432 29.9062C55.6165 29.7585 55.358 29.5412 55.1676 29.2543C54.9801 28.9645 54.8864 28.6037 54.8864 28.1719C54.8864 27.8082 54.9531 27.5028 55.0866 27.2557C55.2202 27.0085 55.402 26.8097 55.6321 26.6591C55.8622 26.5085 56.1236 26.3949 56.4162 26.3182C56.7116 26.2415 57.0213 26.1875 57.3452 26.1562C57.7259 26.1165 58.0327 26.0795 58.2656 26.0455C58.4986 26.0085 58.6676 25.9545 58.7727 25.8835C58.8778 25.8125 58.9304 25.7074 58.9304 25.5682V25.5426C58.9304 25.2727 58.8452 25.0639 58.6747 24.9162C58.5071 24.7685 58.2685 24.6946 57.9588 24.6946C57.6321 24.6946 57.3722 24.767 57.179 24.9119C56.9858 25.054 56.858 25.233 56.7955 25.4489L55.1165 25.3125C55.2017 24.9148 55.3693 24.571 55.6193 24.2812C55.8693 23.9886 56.1918 23.7642 56.5866 23.608C56.9844 23.4489 57.4446 23.3693 57.9673 23.3693C58.331 23.3693 58.679 23.4119 59.0114 23.4972C59.3466 23.5824 59.6435 23.7145 59.902 23.8935C60.1634 24.0724 60.3693 24.3026 60.5199 24.5838C60.6705 24.8622 60.7457 25.196 60.7457 25.5852V30H59.0241V29.0923H58.973C58.8679 29.2969 58.7273 29.4773 58.5511 29.6335C58.375 29.7869 58.1634 29.9077 57.9162 29.9957C57.669 30.081 57.3835 30.1236 57.0597 30.1236ZM57.5795 28.8707C57.8466 28.8707 58.0824 28.8182 58.2869 28.7131C58.4915 28.6051 58.652 28.4602 58.7685 28.2784C58.8849 28.0966 58.9432 27.8906 58.9432 27.6605V26.9659C58.8864 27.0028 58.8082 27.0369 58.7088 27.0682C58.6122 27.0966 58.5028 27.1236 58.3807 27.1491C58.2585 27.1719 58.1364 27.1932 58.0142 27.2131C57.892 27.2301 57.7812 27.2457 57.6818 27.2599C57.4688 27.2912 57.2827 27.3409 57.1236 27.4091C56.9645 27.4773 56.8409 27.5696 56.7528 27.6861C56.6648 27.7997 56.6207 27.9418 56.6207 28.1122C56.6207 28.3594 56.7102 28.5483 56.8892 28.679C57.071 28.8068 57.3011 28.8707 57.5795 28.8707ZM62.1541 30V23.4545H63.9141V24.5966H63.9822C64.1016 24.1903 64.3018 23.8835 64.5831 23.6761C64.8643 23.4659 65.1882 23.3608 65.5547 23.3608C65.6456 23.3608 65.7436 23.3665 65.8487 23.3778C65.9538 23.3892 66.0462 23.4048 66.1257 23.4247V25.0355C66.0405 25.0099 65.9226 24.9872 65.772 24.9673C65.6214 24.9474 65.4837 24.9375 65.3587 24.9375C65.0916 24.9375 64.853 24.9957 64.6428 25.1122C64.4354 25.2259 64.2706 25.3849 64.1484 25.5895C64.0291 25.794 63.9695 26.0298 63.9695 26.2969V30H62.1541ZM69.717 30.1278C69.0465 30.1278 68.4698 29.9858 67.9869 29.7017C67.5067 29.4148 67.1374 29.017 66.8789 28.5085C66.6232 28 66.4954 27.4148 66.4954 26.7528C66.4954 26.0824 66.6246 25.4943 66.8832 24.9886C67.1445 24.4801 67.5153 24.0838 67.9954 23.7997C68.4755 23.5128 69.0465 23.3693 69.7085 23.3693C70.2795 23.3693 70.7795 23.473 71.2085 23.6804C71.6374 23.8878 71.9769 24.179 72.2269 24.554C72.4769 24.929 72.6147 25.3693 72.6403 25.875H70.9272C70.8789 25.5483 70.7511 25.2855 70.5437 25.0866C70.3391 24.8849 70.0707 24.7841 69.7383 24.7841C69.457 24.7841 69.2113 24.8608 69.0011 25.0142C68.7937 25.1648 68.6317 25.3849 68.5153 25.6747C68.3988 25.9645 68.3406 26.3153 68.3406 26.7273C68.3406 27.1449 68.3974 27.5 68.511 27.7926C68.6275 28.0852 68.7908 28.3082 69.0011 28.4616C69.2113 28.6151 69.457 28.6918 69.7383 28.6918C69.9457 28.6918 70.1317 28.6491 70.2965 28.5639C70.4641 28.4787 70.6019 28.3551 70.7099 28.1932C70.8207 28.0284 70.8931 27.831 70.9272 27.6009H72.6403C72.6119 28.1009 72.4755 28.5412 72.2312 28.9219C71.9897 29.2997 71.6559 29.5952 71.2298 29.8082C70.8036 30.0213 70.2994 30.1278 69.717 30.1278ZM75.6179 26.2159V30H73.8026V21.2727H75.5668V24.6094H75.6435C75.7912 24.223 76.0298 23.9205 76.3594 23.7017C76.6889 23.4801 77.1023 23.3693 77.5994 23.3693C78.054 23.3693 78.4503 23.4688 78.7884 23.6676C79.1293 23.8636 79.3935 24.1463 79.581 24.5156C79.7713 24.8821 79.8651 25.321 79.8622 25.8324V30H78.0469V26.1562C78.0497 25.7528 77.9474 25.4389 77.7401 25.2145C77.5355 24.9901 77.2486 24.8778 76.8793 24.8778C76.6321 24.8778 76.4134 24.9304 76.223 25.0355C76.0355 25.1406 75.8878 25.294 75.7798 25.4957C75.6747 25.6946 75.6207 25.9347 75.6179 26.2159Z" fill="black"/>
</svg>
