<svg width="64" height="112" viewBox="0 0 64 112" fill="none" xmlns="http://www.w3.org/2000/svg">
<rect x="1" y="1" width="62" height="110" rx="5" fill="black" stroke="black" stroke-width="2"/>
<circle cx="31" cy="101" r="5" fill="#B3B3B3"/>
<path d="M20 5H44" stroke="black" stroke-width="2" stroke-linecap="round"/>
<circle cx="15" cy="5" r="1" fill="#5C5C5C"/>
<rect x="2" y="8" width="60" height="86" fill="#F5F5F5"/>
<rect x="2" y="54" width="60" height="32" fill="#009C64"/>
<path d="M9.5 57H39.5" stroke="white" stroke-width="2" stroke-linecap="round"/>
<path d="M9.5 65H32" stroke="white" stroke-width="2" stroke-linecap="round"/>
<path d="M9.5 73H32" stroke="white" stroke-width="2" stroke-linecap="round"/>
<path d="M9.5 81H32" stroke="white" stroke-width="2" stroke-linecap="round"/>
<rect x="9.5" y="30" width="45" height="16" rx="8" fill="#D9D9D9"/>
<path fill-rule="evenodd" clip-rule="evenodd" d="M48.1311 37.6699C48.1311 38.7157 47.3665 39.3398 46.6905 39.3398C46.0146 39.3398 45.25 38.7157 45.25 37.6699C45.25 36.6241 46.0146 36 46.6905 36C47.3665 36 48.1311 36.6241 48.1311 37.6699ZM48.8282 40.5457C48.2412 41.0429 47.4984 41.3398 46.6905 41.3398C44.7904 41.3398 43.25 39.6968 43.25 37.6699C43.25 35.6431 44.7904 34 46.6905 34C48.5907 34 50.1311 35.6431 50.1311 37.6699C50.1311 38.1377 50.0491 38.5849 49.8995 38.9963L50.0055 38.8833L51.6246 40.6103C52.0023 41.0132 52.0023 41.6665 51.6246 42.0694C51.2468 42.4723 50.6344 42.4723 50.2567 42.0694L48.8282 40.5457Z" fill="#9A9A9A"/>
<path d="M16.9265 19.7827C16.8924 19.4389 16.7461 19.1719 16.4876 18.9815C16.229 18.7912 15.8782 18.696 15.435 18.696C15.1339 18.696 14.8796 18.7386 14.6722 18.8239C14.4648 18.9062 14.3058 19.0213 14.195 19.169C14.087 19.3168 14.033 19.4844 14.033 19.6719C14.0273 19.8281 14.06 19.9645 14.131 20.081C14.2049 20.1974 14.3058 20.2983 14.4336 20.3835C14.5614 20.4659 14.7092 20.5384 14.8768 20.6009C15.0444 20.6605 15.2234 20.7116 15.4137 20.7543L16.1978 20.9418C16.5785 21.027 16.9279 21.1406 17.2461 21.2827C17.5643 21.4247 17.8398 21.5994 18.0728 21.8068C18.3058 22.0142 18.4862 22.2585 18.614 22.5398C18.7447 22.821 18.8114 23.1435 18.8143 23.5071C18.8114 24.0412 18.6751 24.5043 18.4052 24.8963C18.1381 25.2855 17.7518 25.5881 17.2461 25.804C16.7433 26.017 16.1367 26.1236 15.4265 26.1236C14.7219 26.1236 14.1083 26.0156 13.5856 25.7997C13.0657 25.5838 12.6594 25.2642 12.3668 24.8409C12.0771 24.4148 11.9251 23.8878 11.9109 23.2599H13.6964C13.7163 23.5526 13.8001 23.7969 13.9478 23.9929C14.0984 24.1861 14.2987 24.3324 14.5487 24.4318C14.8015 24.5284 15.087 24.5767 15.4052 24.5767C15.7177 24.5767 15.989 24.5312 16.2191 24.4403C16.4521 24.3494 16.6325 24.223 16.7603 24.0611C16.8881 23.8991 16.9521 23.7131 16.9521 23.5028C16.9521 23.3068 16.8938 23.142 16.7773 23.0085C16.6637 22.875 16.4961 22.7614 16.2745 22.6676C16.0558 22.5739 15.7873 22.4886 15.4691 22.4119L14.5188 22.1733C13.783 21.9943 13.2021 21.7145 12.7759 21.3338C12.3498 20.9531 12.1381 20.4403 12.141 19.7955C12.1381 19.267 12.2788 18.8054 12.5629 18.4105C12.8498 18.0156 13.2433 17.7074 13.7433 17.4858C14.2433 17.2642 14.8114 17.1534 15.4478 17.1534C16.0955 17.1534 16.6609 17.2642 17.1438 17.4858C17.6296 17.7074 18.0075 18.0156 18.2773 18.4105C18.5472 18.8054 18.6864 19.2628 18.695 19.7827H16.9265ZM23.0043 26.1278C22.331 26.1278 21.7514 25.9915 21.2656 25.7188C20.7827 25.4432 20.4105 25.054 20.1491 24.5511C19.8878 24.0455 19.7571 23.4474 19.7571 22.7571C19.7571 22.0838 19.8878 21.4929 20.1491 20.9844C20.4105 20.4759 20.7784 20.0795 21.2528 19.7955C21.7301 19.5114 22.2898 19.3693 22.9318 19.3693C23.3636 19.3693 23.7656 19.4389 24.1378 19.5781C24.5128 19.7145 24.8395 19.9205 25.1179 20.196C25.3991 20.4716 25.6179 20.8182 25.7741 21.2358C25.9304 21.6506 26.0085 22.1364 26.0085 22.6932V23.1918H20.4815V22.0668H24.2997C24.2997 21.8054 24.2429 21.5739 24.1293 21.3722C24.0156 21.1705 23.858 21.0128 23.6562 20.8991C23.4574 20.7827 23.2259 20.7244 22.9616 20.7244C22.6861 20.7244 22.4418 20.7884 22.2287 20.9162C22.0185 21.0412 21.8537 21.2102 21.7344 21.4233C21.6151 21.6335 21.554 21.8679 21.5511 22.1264V23.196C21.5511 23.5199 21.6108 23.7997 21.7301 24.0355C21.8523 24.2713 22.0241 24.4531 22.2457 24.581C22.4673 24.7088 22.7301 24.7727 23.0341 24.7727C23.2358 24.7727 23.4205 24.7443 23.5881 24.6875C23.7557 24.6307 23.8991 24.5455 24.0185 24.4318C24.1378 24.3182 24.2287 24.179 24.2912 24.0142L25.9702 24.125C25.8849 24.5284 25.7102 24.8807 25.446 25.1818C25.1847 25.4801 24.8466 25.7131 24.4318 25.8807C24.0199 26.0455 23.544 26.1278 23.0043 26.1278ZM29.0597 26.1236C28.642 26.1236 28.2699 26.0511 27.9432 25.9062C27.6165 25.7585 27.358 25.5412 27.1676 25.2543C26.9801 24.9645 26.8864 24.6037 26.8864 24.1719C26.8864 23.8082 26.9531 23.5028 27.0866 23.2557C27.2202 23.0085 27.402 22.8097 27.6321 22.6591C27.8622 22.5085 28.1236 22.3949 28.4162 22.3182C28.7116 22.2415 29.0213 22.1875 29.3452 22.1562C29.7259 22.1165 30.0327 22.0795 30.2656 22.0455C30.4986 22.0085 30.6676 21.9545 30.7727 21.8835C30.8778 21.8125 30.9304 21.7074 30.9304 21.5682V21.5426C30.9304 21.2727 30.8452 21.0639 30.6747 20.9162C30.5071 20.7685 30.2685 20.6946 29.9588 20.6946C29.6321 20.6946 29.3722 20.767 29.179 20.9119C28.9858 21.054 28.858 21.233 28.7955 21.4489L27.1165 21.3125C27.2017 20.9148 27.3693 20.571 27.6193 20.2812C27.8693 19.9886 28.1918 19.7642 28.5866 19.608C28.9844 19.4489 29.4446 19.3693 29.9673 19.3693C30.331 19.3693 30.679 19.4119 31.0114 19.4972C31.3466 19.5824 31.6435 19.7145 31.902 19.8935C32.1634 20.0724 32.3693 20.3026 32.5199 20.5838C32.6705 20.8622 32.7457 21.196 32.7457 21.5852V26H31.0241V25.0923H30.973C30.8679 25.2969 30.7273 25.4773 30.5511 25.6335C30.375 25.7869 30.1634 25.9077 29.9162 25.9957C29.669 26.081 29.3835 26.1236 29.0597 26.1236ZM29.5795 24.8707C29.8466 24.8707 30.0824 24.8182 30.2869 24.7131C30.4915 24.6051 30.652 24.4602 30.7685 24.2784C30.8849 24.0966 30.9432 23.8906 30.9432 23.6605V22.9659C30.8864 23.0028 30.8082 23.0369 30.7088 23.0682C30.6122 23.0966 30.5028 23.1236 30.3807 23.1491C30.2585 23.1719 30.1364 23.1932 30.0142 23.2131C29.892 23.2301 29.7812 23.2457 29.6818 23.2599C29.4688 23.2912 29.2827 23.3409 29.1236 23.4091C28.9645 23.4773 28.8409 23.5696 28.7528 23.6861C28.6648 23.7997 28.6207 23.9418 28.6207 24.1122C28.6207 24.3594 28.7102 24.5483 28.8892 24.679C29.071 24.8068 29.3011 24.8707 29.5795 24.8707ZM34.1541 26V19.4545H35.9141V20.5966H35.9822C36.1016 20.1903 36.3018 19.8835 36.5831 19.6761C36.8643 19.4659 37.1882 19.3608 37.5547 19.3608C37.6456 19.3608 37.7436 19.3665 37.8487 19.3778C37.9538 19.3892 38.0462 19.4048 38.1257 19.4247V21.0355C38.0405 21.0099 37.9226 20.9872 37.772 20.9673C37.6214 20.9474 37.4837 20.9375 37.3587 20.9375C37.0916 20.9375 36.853 20.9957 36.6428 21.1122C36.4354 21.2259 36.2706 21.3849 36.1484 21.5895C36.0291 21.794 35.9695 22.0298 35.9695 22.2969V26H34.1541ZM41.717 26.1278C41.0465 26.1278 40.4698 25.9858 39.9869 25.7017C39.5067 25.4148 39.1374 25.017 38.8789 24.5085C38.6232 24 38.4954 23.4148 38.4954 22.7528C38.4954 22.0824 38.6246 21.4943 38.8832 20.9886C39.1445 20.4801 39.5153 20.0838 39.9954 19.7997C40.4755 19.5128 41.0465 19.3693 41.7085 19.3693C42.2795 19.3693 42.7795 19.473 43.2085 19.6804C43.6374 19.8878 43.9769 20.179 44.2269 20.554C44.4769 20.929 44.6147 21.3693 44.6403 21.875H42.9272C42.8789 21.5483 42.7511 21.2855 42.5437 21.0866C42.3391 20.8849 42.0707 20.7841 41.7383 20.7841C41.457 20.7841 41.2113 20.8608 41.0011 21.0142C40.7937 21.1648 40.6317 21.3849 40.5153 21.6747C40.3988 21.9645 40.3406 22.3153 40.3406 22.7273C40.3406 23.1449 40.3974 23.5 40.511 23.7926C40.6275 24.0852 40.7908 24.3082 41.0011 24.4616C41.2113 24.6151 41.457 24.6918 41.7383 24.6918C41.9457 24.6918 42.1317 24.6491 42.2965 24.5639C42.4641 24.4787 42.6019 24.3551 42.7099 24.1932C42.8207 24.0284 42.8931 23.831 42.9272 23.6009H44.6403C44.6119 24.1009 44.4755 24.5412 44.2312 24.9219C43.9897 25.2997 43.6559 25.5952 43.2298 25.8082C42.8036 26.0213 42.2994 26.1278 41.717 26.1278ZM47.6179 22.2159V26H45.8026V17.2727H47.5668V20.6094H47.6435C47.7912 20.223 48.0298 19.9205 48.3594 19.7017C48.6889 19.4801 49.1023 19.3693 49.5994 19.3693C50.054 19.3693 50.4503 19.4688 50.7884 19.6676C51.1293 19.8636 51.3935 20.1463 51.581 20.5156C51.7713 20.8821 51.8651 21.321 51.8622 21.8324V26H50.0469V22.1562C50.0497 21.7528 49.9474 21.4389 49.7401 21.2145C49.5355 20.9901 49.2486 20.8778 48.8793 20.8778C48.6321 20.8778 48.4134 20.9304 48.223 21.0355C48.0355 21.1406 47.8878 21.294 47.7798 21.4957C47.6747 21.6946 47.6207 21.9347 47.6179 22.2159Z" fill="black"/>
</svg>
