<svg width="120" height="120" viewBox="0 0 120 120" fill="none" xmlns="http://www.w3.org/2000/svg">
<path d="M60.55 25.6C41.26 25.6 25.6 41.26 25.6 60.55C25.6 79.84 41.26 95.5 60.55 95.5C79.84 95.5 95.5 79.84 95.5 60.55C95.5 41.26 79.84 25.6 60.55 25.6ZM55.495 28.6945C50.65 32.1775 46.69 35.9875 43.63 40H35.689C40.585 34.081 47.56 29.9425 55.495 28.6945ZM65.605 28.6945C73.54 29.9425 80.515 34.081 85.405 40H77.47C74.41 35.9875 70.45 32.1775 65.605 28.6945ZM56.575 31.2415C55 34.213 53.65 37.1275 52.525 40H47.08C49.645 36.9415 52.81 34 56.575 31.2415ZM64.525 31.2415C68.29 34 71.455 36.9415 74.02 40H68.575C67.45 37.1275 66.1 34.213 64.525 31.2415ZM59.2 32.0485V40H55.435C56.485 37.405 57.745 34.7575 59.2 32.0485ZM61.9 32.0485C63.355 34.7575 64.615 37.405 65.665 40H61.9V32.0485ZM33.6835 42.7H41.71C40.24 44.95 39.04 47.26 38.125 49.6H30.2065C31.09 47.155 32.263 44.83 33.6835 42.7ZM44.965 42.7H51.535C50.725 45.025 50.095 47.32 49.6 49.6H41.035C42.04 47.26 43.36 44.965 44.965 42.7ZM54.385 42.7H59.2V49.6H52.36C52.87 47.32 53.545 45.025 54.385 42.7ZM61.9 42.7H66.715C67.555 45.025 68.23 47.32 68.74 49.6H61.9V42.7ZM69.565 42.7H76.135C77.74 44.965 79.06 47.26 80.065 49.6H71.5C71.005 47.32 70.375 45.025 69.565 42.7ZM79.39 42.7H87.415C88.84 44.83 90.01 47.155 90.895 49.6H82.975C82.06 47.26 80.86 44.95 79.39 42.7ZM29.365 52.3H37.18C36.4855 54.58 36.055 56.89 35.884 59.2H28.33C28.4275 56.83 28.7815 54.52 29.365 52.3ZM40 52.3H49.075C48.7 54.61 48.49 56.905 48.415 59.2H38.59C38.77 56.905 39.25 54.595 40 52.3ZM51.82 52.3H59.2V59.2H51.115C51.19 56.905 51.415 54.61 51.82 52.3ZM61.9 52.3H69.28C69.685 54.61 69.91 56.905 69.985 59.2H61.9V52.3ZM72.025 52.3H81.1C81.85 54.595 82.33 56.905 82.51 59.2H72.685C72.61 56.905 72.4 54.61 72.025 52.3ZM83.92 52.3H91.735C92.32 54.52 92.665 56.83 92.77 59.2H85.21C85.045 56.89 84.61 54.58 83.92 52.3ZM28.33 61.9H35.8045C35.839 64.225 36.1405 66.535 36.7075 68.8H29.365C28.7815 66.58 28.4275 64.27 28.33 61.9ZM38.5 61.9H48.415C48.49 64.195 48.7 66.49 49.075 68.8H39.49C38.875 66.52 38.545 64.21 38.5 61.9ZM51.115 61.9H59.2V68.8H51.82C51.415 66.49 51.19 64.195 51.115 61.9ZM61.9 61.9H69.985C69.91 64.195 69.685 66.49 69.28 68.8H61.9V61.9ZM72.685 61.9H82.6C82.555 64.21 82.225 66.52 81.61 68.8H72.025C72.4 66.49 72.61 64.195 72.685 61.9ZM85.3 61.9H92.77C92.665 64.27 92.32 66.58 91.735 68.8H84.4C84.955 66.535 85.255 64.225 85.3 61.9ZM30.2065 71.5H37.51C38.32 73.855 39.43 76.165 40.825 78.4H33.6835C32.263 76.27 31.09 73.945 30.2065 71.5ZM40.36 71.5H49.6C50.095 73.78 50.725 76.075 51.535 78.4H44.035C42.475 76.165 41.26 73.855 40.36 71.5ZM52.36 71.5H59.2V78.4H54.385C53.545 76.075 52.87 73.78 52.36 71.5ZM61.9 71.5H68.74C68.23 73.78 67.555 76.075 66.715 78.4H61.9V71.5ZM71.5 71.5H80.74C79.84 73.855 78.625 76.165 77.065 78.4H69.565C70.375 76.075 71.005 73.78 71.5 71.5ZM83.59 71.5H90.895C90.01 73.945 88.84 76.27 87.415 78.4H80.275C81.67 76.165 82.78 73.855 83.59 71.5ZM35.689 81.1H42.685C45.73 85.165 49.78 88.945 54.82 92.29C47.17 90.925 40.45 86.845 35.689 81.1ZM46.09 81.1H52.525C53.71 84.16 55.165 87.25 56.875 90.415C52.48 87.58 48.895 84.445 46.09 81.1ZM55.435 81.1H59.2V89.05C57.745 86.35 56.485 83.695 55.435 81.1ZM61.9 81.1H65.665C64.615 83.695 63.355 86.35 61.9 89.05V81.1ZM68.575 81.1H75.01C72.205 84.445 68.62 87.58 64.225 90.415C65.935 87.25 67.39 84.16 68.575 81.1ZM78.415 81.1H85.405C80.65 86.845 73.93 90.925 66.28 92.29C71.32 88.945 75.37 85.165 78.415 81.1Z" fill="black"/>
<path d="M68.7986 60.1048L66.0554 68.3344C66.0116 68.4664 65.9367 68.5858 65.8369 68.6825C65.7371 68.7793 65.6155 68.8506 65.4823 68.8903L48.666 73.8885C48.5145 73.9335 48.3535 73.9361 48.2006 73.896C48.0478 73.8559 47.9088 73.7746 47.799 73.661C47.6891 73.5474 47.6125 73.4058 47.5774 73.2517C47.5424 73.0976 47.5504 72.9368 47.6004 72.7869L53.0608 56.4084C53.1 56.2908 53.1639 56.183 53.2484 56.0923C53.3329 56.0016 53.4359 55.9301 53.5504 55.8828L61.3077 52.6888C61.4654 52.6237 61.6389 52.6067 61.8062 52.64C61.9736 52.6734 62.1273 52.7555 62.248 52.876L68.5898 59.2207C68.7033 59.3341 68.7829 59.4769 68.8198 59.6331C68.8567 59.7893 68.8493 59.9526 68.7986 60.1048ZM48.0943 73.3442L57.2584 64.18L48.0943 73.3442Z" fill="#008D5A"/>
<path d="M48.0943 73.3442L57.2584 64.18M68.7986 60.1048L66.0554 68.3344C66.0116 68.4664 65.9367 68.5858 65.8369 68.6825C65.7371 68.7793 65.6155 68.8506 65.4823 68.8903L48.666 73.8885C48.5145 73.9335 48.3535 73.9361 48.2006 73.896C48.0478 73.8559 47.9088 73.7746 47.799 73.661C47.6891 73.5474 47.6125 73.4058 47.5774 73.2517C47.5424 73.0976 47.5504 72.9368 47.6004 72.7869L53.0608 56.4084C53.1 56.2908 53.1639 56.183 53.2484 56.0923C53.3329 56.0016 53.4359 55.9301 53.5504 55.8828L61.3077 52.6888C61.4654 52.6237 61.6389 52.6067 61.8062 52.64C61.9736 52.6734 62.1273 52.7555 62.248 52.876L68.5898 59.2207C68.7033 59.3341 68.7829 59.4769 68.8198 59.6331C68.8567 59.7893 68.8493 59.9526 68.7986 60.1048Z" stroke="black" stroke-width="2.16" stroke-linecap="round" stroke-linejoin="round"/>
<path d="M68.9686 59.5981L73.0409 55.5243C73.5808 54.9842 73.8841 54.2518 73.8841 53.4882C73.8841 52.7245 73.5808 51.9921 73.0409 51.452L69.9881 48.3963C69.7206 48.1288 69.4031 47.9165 69.0536 47.7717C68.7041 47.6269 68.3295 47.5524 67.9512 47.5524C67.5729 47.5524 67.1983 47.6269 66.8488 47.7717C66.4993 47.9165 66.1818 48.1288 65.9143 48.3963L61.842 52.4701M60.3127 61.1245C60.1121 60.9239 59.8739 60.7649 59.6118 60.6564C59.3497 60.5479 59.0688 60.4921 58.7851 60.4921C58.5014 60.4922 58.2205 60.5481 57.9585 60.6568C57.6964 60.7654 57.4583 60.9246 57.2578 61.1252C57.0572 61.3258 56.8982 61.564 56.7897 61.8261C56.6812 62.0882 56.6254 62.3691 56.6254 62.6528C56.6255 62.9365 56.6814 63.2174 56.7901 63.4794C56.8987 63.7415 57.0579 63.9796 57.2585 64.1802C57.6637 64.5852 58.2132 64.8126 58.7861 64.8125C59.359 64.8124 59.9084 64.5846 60.3134 64.1794C60.7185 63.7742 60.9459 63.2247 60.9458 62.6518C60.9457 62.0789 60.7179 61.5295 60.3127 61.1245Z" fill="#008D5A"/>
<path d="M68.9686 59.5981L73.0409 55.5243C73.5808 54.9842 73.8841 54.2518 73.8841 53.4882C73.8841 52.7245 73.5808 51.9921 73.0409 51.452L69.9881 48.3963C69.7206 48.1288 69.4031 47.9165 69.0536 47.7717C68.7041 47.6269 68.3295 47.5524 67.9512 47.5524C67.5729 47.5524 67.1983 47.6269 66.8488 47.7717C66.4993 47.9165 66.1818 48.1288 65.9143 48.3963L61.842 52.4701M60.3127 61.1245C60.1121 60.9239 59.8739 60.7649 59.6118 60.6564C59.3497 60.5479 59.0688 60.4921 58.7851 60.4921C58.5014 60.4922 58.2205 60.5481 57.9585 60.6568C57.6964 60.7654 57.4583 60.9246 57.2578 61.1252C57.0572 61.3258 56.8982 61.564 56.7897 61.8261C56.6812 62.0882 56.6254 62.3691 56.6254 62.6528C56.6255 62.9365 56.6814 63.2174 56.7901 63.4794C56.8987 63.7415 57.0579 63.9796 57.2585 64.1802C57.6637 64.5852 58.2132 64.8126 58.7861 64.8125C59.359 64.8124 59.9084 64.5846 60.3134 64.1794C60.7185 63.7742 60.9459 63.2247 60.9458 62.6518C60.9457 62.0789 60.7179 61.5295 60.3127 61.1245Z" stroke="black" stroke-width="2.16" stroke-linecap="round" stroke-linejoin="round"/>
</svg>
