<svg width="78" height="78" viewBox="0 0 78 78" fill="none" xmlns="http://www.w3.org/2000/svg">
<path d="M39.15 4.19995C19.86 4.19995 4.19995 19.86 4.19995 39.15C4.19995 58.44 19.86 74.1 39.15 74.1C58.44 74.1 74.1 58.44 74.1 39.15C74.1 19.86 58.44 4.19995 39.15 4.19995ZM34.095 7.29445C29.25 10.7775 25.29 14.5875 22.23 18.6H14.289C19.185 12.681 26.16 8.54245 34.095 7.29445ZM44.205 7.29445C52.14 8.54245 59.115 12.681 64.005 18.6H56.07C53.01 14.5875 49.05 10.7775 44.205 7.29445ZM35.175 9.84145C33.6 12.813 32.25 15.7275 31.125 18.6H25.68C28.245 15.5415 31.41 12.6 35.175 9.84145ZM43.125 9.84145C46.89 12.6 50.055 15.5415 52.62 18.6H47.175C46.05 15.7275 44.7 12.813 43.125 9.84145ZM37.8 10.6485V18.6H34.035C35.085 16.005 36.345 13.3575 37.8 10.6485ZM40.5 10.6485C41.955 13.3575 43.215 16.005 44.265 18.6H40.5V10.6485ZM12.2835 21.3H20.31C18.84 23.55 17.64 25.86 16.725 28.2H8.80645C9.68995 25.755 10.863 23.43 12.2835 21.3ZM23.565 21.3H30.135C29.325 23.625 28.695 25.92 28.2 28.2H19.635C20.64 25.86 21.96 23.565 23.565 21.3ZM32.985 21.3H37.8V28.2H30.96C31.47 25.92 32.145 23.625 32.985 21.3ZM40.5 21.3H45.315C46.155 23.625 46.83 25.92 47.34 28.2H40.5V21.3ZM48.165 21.3H54.735C56.34 23.565 57.66 25.86 58.665 28.2H50.1C49.605 25.92 48.975 23.625 48.165 21.3ZM57.99 21.3H66.015C67.44 23.43 68.61 25.755 69.495 28.2H61.575C60.66 25.86 59.46 23.55 57.99 21.3ZM7.96495 30.9H15.78C15.0855 33.18 14.655 35.49 14.484 37.8H6.92995C7.02745 35.43 7.38145 33.12 7.96495 30.9ZM18.6 30.9H27.675C27.3 33.21 27.09 35.505 27.015 37.8H17.19C17.37 35.505 17.85 33.195 18.6 30.9ZM30.42 30.9H37.8V37.8H29.715C29.79 35.505 30.015 33.21 30.42 30.9ZM40.5 30.9H47.88C48.285 33.21 48.51 35.505 48.585 37.8H40.5V30.9ZM50.625 30.9H59.7C60.45 33.195 60.93 35.505 61.11 37.8H51.285C51.21 35.505 51 33.21 50.625 30.9ZM62.52 30.9H70.335C70.92 33.12 71.265 35.43 71.37 37.8H63.81C63.645 35.49 63.21 33.18 62.52 30.9ZM6.92995 40.5H14.4045C14.439 42.825 14.7405 45.135 15.3075 47.4H7.96495C7.38145 45.18 7.02745 42.87 6.92995 40.5ZM17.1 40.5H27.015C27.09 42.795 27.3 45.09 27.675 47.4H18.09C17.475 45.12 17.145 42.81 17.1 40.5ZM29.715 40.5H37.8V47.4H30.42C30.015 45.09 29.79 42.795 29.715 40.5ZM40.5 40.5H48.585C48.51 42.795 48.285 45.09 47.88 47.4H40.5V40.5ZM51.285 40.5H61.2C61.155 42.81 60.825 45.12 60.21 47.4H50.625C51 45.09 51.21 42.795 51.285 40.5ZM63.9 40.5H71.37C71.265 42.87 70.92 45.18 70.335 47.4H63C63.555 45.135 63.855 42.825 63.9 40.5ZM8.80645 50.1H16.11C16.92 52.455 18.03 54.765 19.425 57H12.2835C10.863 54.87 9.68995 52.545 8.80645 50.1ZM18.96 50.1H28.2C28.695 52.38 29.325 54.675 30.135 57H22.635C21.075 54.765 19.86 52.455 18.96 50.1ZM30.96 50.1H37.8V57H32.985C32.145 54.675 31.47 52.38 30.96 50.1ZM40.5 50.1H47.34C46.83 52.38 46.155 54.675 45.315 57H40.5V50.1ZM50.1 50.1H59.34C58.44 52.455 57.225 54.765 55.665 57H48.165C48.975 54.675 49.605 52.38 50.1 50.1ZM62.19 50.1H69.495C68.61 52.545 67.44 54.87 66.015 57H58.875C60.27 54.765 61.38 52.455 62.19 50.1ZM14.289 59.7H21.285C24.33 63.765 28.38 67.545 33.42 70.89C25.77 69.525 19.05 65.445 14.289 59.7ZM24.69 59.7H31.125C32.31 62.76 33.765 65.85 35.475 69.015C31.08 66.18 27.495 63.045 24.69 59.7ZM34.035 59.7H37.8V67.65C36.345 64.95 35.085 62.295 34.035 59.7ZM40.5 59.7H44.265C43.215 62.295 41.955 64.95 40.5 67.65V59.7ZM47.175 59.7H53.61C50.805 63.045 47.22 66.18 42.825 69.015C44.535 65.85 45.99 62.76 47.175 59.7ZM57.015 59.7H64.005C59.25 65.445 52.53 69.525 44.88 70.89C49.92 67.545 53.97 63.765 57.015 59.7Z" fill="black"/>
<path d="M47.3986 38.7048L44.6554 46.9344C44.6116 47.0663 44.5366 47.1857 44.4369 47.2825C44.3371 47.3793 44.2154 47.4505 44.0822 47.4903L27.2659 52.4885C27.1144 52.5335 26.9535 52.5361 26.8006 52.4959C26.6478 52.4558 26.5088 52.3746 26.3989 52.261C26.2891 52.1474 26.2124 52.0058 26.1774 51.8517C26.1424 51.6976 26.1503 51.5368 26.2003 51.3869L31.6608 35.0083C31.6999 34.8907 31.7639 34.7829 31.8484 34.6922C31.9329 34.6016 32.0359 34.5301 32.1504 34.4827L39.9077 31.2888C40.0654 31.2237 40.2389 31.2067 40.4062 31.24C40.5735 31.2733 40.7273 31.3555 40.848 31.476L47.1898 37.8207C47.3032 37.9341 47.3829 38.0769 47.4198 38.2331C47.4566 38.3892 47.4493 38.5526 47.3986 38.7048ZM26.6942 51.9442L35.8584 42.78Z" fill="#008D5A"/>
<path d="M26.6942 51.9442L35.8584 42.78M47.3986 38.7048L44.6554 46.9344C44.6116 47.0663 44.5366 47.1857 44.4369 47.2825C44.3371 47.3793 44.2154 47.4505 44.0822 47.4903L27.2659 52.4885C27.1144 52.5335 26.9535 52.5361 26.8006 52.4959C26.6478 52.4558 26.5088 52.3746 26.3989 52.261C26.2891 52.1474 26.2124 52.0058 26.1774 51.8517C26.1424 51.6976 26.1503 51.5368 26.2003 51.3869L31.6608 35.0083C31.6999 34.8907 31.7639 34.7829 31.8484 34.6922C31.9329 34.6016 32.0359 34.5301 32.1504 34.4827L39.9077 31.2888C40.0654 31.2237 40.2389 31.2067 40.4062 31.24C40.5735 31.2733 40.7273 31.3555 40.848 31.476L47.1898 37.8207C47.3032 37.9341 47.3829 38.0769 47.4198 38.2331C47.4566 38.3892 47.4493 38.5526 47.3986 38.7048Z" stroke="black" stroke-width="2.16" stroke-linecap="round" stroke-linejoin="round"/>
<path d="M47.5685 38.198L51.6409 34.1243C52.1808 33.5842 52.4841 32.8518 52.4841 32.0881C52.4841 31.3245 52.1808 30.592 51.6409 30.052L48.5881 26.9963C48.3206 26.7287 48.0031 26.5165 47.6536 26.3717C47.3041 26.2269 46.9295 26.1523 46.5512 26.1523C46.1729 26.1523 45.7983 26.2269 45.4488 26.3717C45.0993 26.5165 44.7818 26.7287 44.5143 26.9963L40.442 31.07M38.9127 39.7244C38.7121 39.5239 38.4739 39.3648 38.2118 39.2563C37.9497 39.1478 37.6688 39.092 37.3851 39.0921C37.1014 39.0922 36.8205 39.1481 36.5584 39.2567C36.2964 39.3654 36.0583 39.5245 35.8577 39.7252C35.6572 39.9258 35.4981 40.164 35.3896 40.4261C35.2811 40.6882 35.2253 40.9691 35.2254 41.2528C35.2255 41.5365 35.2814 41.8174 35.39 42.0794C35.4987 42.3415 35.6578 42.5796 35.8585 42.7801C36.2637 43.1851 36.8132 43.4126 37.3861 43.4125C37.959 43.4123 38.5084 43.1846 38.9134 42.7794C39.3184 42.3742 39.5459 41.8247 39.5458 41.2518C39.5456 40.6789 39.3179 40.1295 38.9127 39.7244Z" fill="#008D5A"/>
<path d="M47.5685 38.198L51.6409 34.1243C52.1808 33.5842 52.4841 32.8518 52.4841 32.0881C52.4841 31.3245 52.1808 30.592 51.6409 30.052L48.5881 26.9963C48.3206 26.7287 48.0031 26.5165 47.6536 26.3717C47.3041 26.2269 46.9295 26.1523 46.5512 26.1523C46.1729 26.1523 45.7983 26.2269 45.4488 26.3717C45.0993 26.5165 44.7818 26.7287 44.5143 26.9963L40.442 31.07M38.9127 39.7244C38.7121 39.5239 38.4739 39.3648 38.2118 39.2563C37.9497 39.1478 37.6688 39.092 37.3851 39.0921C37.1014 39.0922 36.8205 39.1481 36.5584 39.2567C36.2964 39.3654 36.0583 39.5245 35.8577 39.7252C35.6572 39.9258 35.4981 40.164 35.3896 40.4261C35.2811 40.6882 35.2253 40.9691 35.2254 41.2528C35.2255 41.5365 35.2814 41.8174 35.39 42.0794C35.4987 42.3415 35.6578 42.5796 35.8585 42.7801C36.2637 43.1851 36.8132 43.4126 37.3861 43.4125C37.959 43.4123 38.5084 43.1846 38.9134 42.7794C39.3184 42.3742 39.5459 41.8247 39.5458 41.2518C39.5456 40.6789 39.3179 40.1295 38.9127 39.7244Z" stroke="black" stroke-width="2.16" stroke-linecap="round" stroke-linejoin="round"/>
</svg>
