<svg width="120" height="120" viewBox="0 0 120 120" fill="none" xmlns="http://www.w3.org/2000/svg">
<g clip-path="url(#clip0_452_496)">
<path d="M54.5 93H43.5V76.5H54.5V93ZM38 93H27V65.5H38V93ZM16 16H58.4102L82 39.5898V54.5H76.5V43.5H54.5V21.5H21.5V98.5H65.5V104H16V16ZM60 25.4102V38H72.5898L60 25.4102ZM71 54.5V71H65.5V93H60V54.5H71Z" fill="black"/>
<path d="M98.5 76.5H104V104H71V76.5H76.5V71C76.5 69.4818 76.7865 68.0638 77.3594 66.7461C77.9323 65.4284 78.7201 64.2539 79.7227 63.2227C80.7253 62.1914 81.8854 61.4036 83.2031 60.8594C84.5208 60.3151 85.9531 60.0286 87.5 60C89.0182 60 90.4362 60.2865 91.7539 60.8594C93.0716 61.4323 94.2461 62.2201 95.2773 63.2227C96.3086 64.2253 97.0964 65.3854 97.6406 66.7031C98.1849 68.0208 98.4714 69.4531 98.5 71V76.5ZM82 71V76.5H93V71C93 70.2266 92.8568 69.5104 92.5703 68.8516C92.2839 68.1927 91.8971 67.6198 91.4102 67.1328C90.9232 66.6458 90.3359 66.2448 89.6484 65.9297C88.9609 65.6146 88.2448 65.4714 87.5 65.5C86.7266 65.5 86.0104 65.6432 85.3516 65.9297C84.6927 66.2161 84.1198 66.6029 83.6328 67.0898C83.1458 67.5768 82.7448 68.1641 82.4297 68.8516C82.1146 69.5391 81.9714 70.2552 82 71ZM98.5 98.5V82H76.5V98.5H98.5Z" fill="#008D5A"/>
</g>
<defs>
<clipPath id="clip0_452_496">
<rect width="88" height="88" fill="white" transform="translate(16 16)"/>
</clipPath>
</defs>
</svg>
