<svg width="88" height="88" viewBox="0 0 88 88" fill="none" xmlns="http://www.w3.org/2000/svg">
<g clip-path="url(#clip0_434_2)">
<path d="M38.5 77H27.5V60.5H38.5V77ZM22 77H11V49.5H22V77ZM0 0H42.4102L66 23.5898V38.5H60.5V27.5H38.5V5.5H5.5V82.5H49.5V88H0V0ZM44 9.41016V22H56.5898L44 9.41016ZM55 38.5V55H49.5V77H44V38.5H55Z" fill="black"/>
<path d="M82.5 60.5H88V88H55V60.5H60.5V55C60.5 53.4818 60.7865 52.0638 61.3594 50.7461C61.9323 49.4284 62.7201 48.2539 63.7227 47.2227C64.7253 46.1914 65.8854 45.4036 67.2031 44.8594C68.5208 44.3151 69.9531 44.0286 71.5 44C73.0182 44 74.4362 44.2865 75.7539 44.8594C77.0716 45.4323 78.2461 46.2201 79.2773 47.2227C80.3086 48.2253 81.0964 49.3854 81.6406 50.7031C82.1849 52.0208 82.4714 53.4531 82.5 55V60.5ZM66 55V60.5H77V55C77 54.2266 76.8568 53.5104 76.5703 52.8516C76.2839 52.1927 75.8971 51.6198 75.4102 51.1328C74.9232 50.6458 74.3359 50.2448 73.6484 49.9297C72.9609 49.6146 72.2448 49.4714 71.5 49.5C70.7266 49.5 70.0104 49.6432 69.3516 49.9297C68.6927 50.2161 68.1198 50.6029 67.6328 51.0898C67.1458 51.5768 66.7448 52.1641 66.4297 52.8516C66.1146 53.5391 65.9714 54.2552 66 55ZM82.5 82.5V66H60.5V82.5H82.5Z" fill="#008D5A"/>
</g>
<defs>
<clipPath id="clip0_434_2">
<rect width="88" height="88" fill="white"/>
</clipPath>
</defs>
</svg>
