<svg width="120" height="120" viewBox="0 0 120 120" fill="none" xmlns="http://www.w3.org/2000/svg">
<path fill-rule="evenodd" clip-rule="evenodd" d="M51.8651 24.1851L59.1059 31.4259L51.8651 38.6667L49.4515 36.2531L52.5705 33.1325H39.9185C36.1859 33.1325 33.153 36.1281 33.0927 39.8463L33.0918 39.9591L33.0917 41.6658H29.6785V39.9591C29.6785 34.3603 34.1718 29.811 39.7491 29.7205L39.9185 29.7191H52.5705L49.4515 26.5987L51.8651 24.1851Z" fill="#008D5A"/>
<g filter="url(#filter0_d_452_498)">
<path d="M18.997 50.8294C18.997 50.3714 19.3684 50 19.8265 50H49.6863C50.1444 50 50.5158 50.3714 50.5158 50.8294V73.2243H18.997V50.8294Z" fill="#D9D9D9"/>
<path d="M18.997 73.2243H50.5158L53.4696 82.0859C53.6486 82.623 53.2489 83.1776 52.6827 83.1776H16.8301C16.2639 83.1776 15.8642 82.623 16.0432 82.0859L18.997 73.2243Z" fill="#D9D9D9"/>
<path d="M50.3084 73.017H19.2044V50.8294C19.2044 50.4859 19.4829 50.2074 19.8265 50.2074H49.6863C50.0299 50.2074 50.3084 50.4859 50.3084 50.8294V73.017ZM19.1465 73.4317H50.3663L53.2729 82.1514C53.4072 82.5543 53.1073 82.9702 52.6827 82.9702H16.8301C16.4055 82.9702 16.1056 82.5543 16.2399 82.1514L19.1465 73.4317Z" stroke="black" stroke-width="0.41472"/>
</g>
<path d="M21.3818 52.35H48.1312V70.8742H21.3818V52.35Z" fill="#D9D9D9" stroke="black" stroke-width="0.82944"/>
<rect width="0.82944" height="0.820933" transform="matrix(-1 0 0 1 47.1981 53.7833)" fill="black"/>
<rect width="0.82944" height="0.820933" transform="matrix(-1 0 0 1 47.1981 53.7833)" fill="black"/>
<rect width="0.82944" height="0.820933" transform="matrix(-1 0 0 1 47.1981 53.7833)" fill="black"/>
<rect width="0.82944" height="0.820933" transform="matrix(-1 0 0 1 45.5392 53.7833)" fill="black"/>
<rect width="0.82944" height="0.820933" transform="matrix(-1 0 0 1 45.5392 53.7833)" fill="black"/>
<rect width="0.82944" height="0.820933" transform="matrix(-1 0 0 1 45.5392 53.7833)" fill="black"/>
<rect width="0.82944" height="0.820933" transform="matrix(-1 0 0 1 43.8802 53.7833)" fill="black"/>
<rect width="0.82944" height="0.820933" transform="matrix(-1 0 0 1 43.8802 53.7833)" fill="black"/>
<rect width="0.82944" height="0.820933" transform="matrix(-1 0 0 1 43.8802 53.7833)" fill="black"/>
<rect x="21.4472" y="52.5672" width="26.5457" height="18.1937" fill="white" stroke="white" stroke-width="0.334344"/>
<rect x="73.4107" y="25.4107" width="25.4643" height="45.1786" rx="2.05357" fill="black" stroke="black" stroke-width="0.821429"/>
<circle cx="85.7322" cy="66.4822" r="2.05357" fill="#B3B3B3"/>
<path d="M81.2142 27.0536H91.0714" stroke="black" stroke-width="0.821429" stroke-linecap="round"/>
<circle cx="79.1607" cy="27.0535" r="0.410714" fill="#5C5C5C"/>
<rect x="73.8214" y="28.2858" width="24.6429" height="35.3214" fill="#F5F5F5"/>
<path fill-rule="evenodd" clip-rule="evenodd" d="M65.9192 94.6659L58.6784 87.4251L65.9192 80.1843L68.3328 82.5979L65.2138 85.7185H77.8658C81.5984 85.7185 84.6313 82.7229 84.6916 79.0047L84.6925 78.8918L84.6926 77.1852H88.1058V78.8918C88.1058 84.4906 83.6125 89.04 78.0352 89.1305L77.8658 89.1318H65.2138L68.3328 92.2523L65.9192 94.6659Z" fill="#008D5A"/>
<defs>
<filter id="filter0_d_452_498" x="16" y="50" width="37.5128" height="34.0071" filterUnits="userSpaceOnUse" color-interpolation-filters="sRGB">
<feFlood flood-opacity="0" result="BackgroundImageFix"/>
<feColorMatrix in="SourceAlpha" type="matrix" values="0 0 0 0 0 0 0 0 0 0 0 0 0 0 0 0 0 0 127 0" result="hardAlpha"/>
<feOffset dy="0.82944"/>
<feComposite in2="hardAlpha" operator="out"/>
<feColorMatrix type="matrix" values="0 0 0 0 0.0666667 0 0 0 0 0.0463889 0 0 0 0 0.0463889 0 0 0 1 0"/>
<feBlend mode="normal" in2="BackgroundImageFix" result="effect1_dropShadow_452_498"/>
<feBlend mode="normal" in="SourceGraphic" in2="effect1_dropShadow_452_498" result="shape"/>
</filter>
</defs>
</svg>
