<svg width="154" height="154" viewBox="0 0 154 154" fill="none" xmlns="http://www.w3.org/2000/svg">
<rect x="58" y="76.7998" width="9.6" height="19.2" fill="black"/>
<rect x="72.5996" y="70.3999" width="9.6" height="25.6" fill="black"/>
<rect x="87.1992" y="64" width="9.6" height="32" fill="black"/>
<path fill-rule="evenodd" clip-rule="evenodd" d="M76.7999 115.2C98.0076 115.2 115.2 98.0076 115.2 76.7999C115.2 55.5922 98.0076 38.3999 76.7999 38.3999C55.5922 38.3999 38.3999 55.5922 38.3999 76.7999C38.3999 98.0076 55.5922 115.2 76.7999 115.2ZM76.7999 105.6C92.7057 105.6 105.6 92.7057 105.6 76.7999C105.6 60.8941 92.7057 47.9999 76.7999 47.9999C60.8941 47.9999 47.9999 60.8941 47.9999 76.7999C47.9999 92.7057 60.8941 105.6 76.7999 105.6Z" fill="#009C64"/>
<rect x="72" y="28.7998" width="9.6" height="12.8" rx="3.2" fill="#009C64"/>
<rect x="72" y="112" width="9.6" height="12.8" rx="3.2" fill="#009C64"/>
<rect x="28.7998" y="81.5996" width="9.6" height="12.8" rx="3.2" transform="rotate(-90 28.7998 81.5996)" fill="#009C64"/>
<rect x="112" y="81.5996" width="9.6" height="12.8" rx="3.2" transform="rotate(-90 112 81.5996)" fill="#009C64"/>
<rect x="46.2529" y="114.135" width="9.6" height="12.8" rx="3.2" transform="rotate(-135 46.2529 114.135)" fill="#009C64"/>
<rect x="105.084" y="55.3037" width="9.6" height="12.8" rx="3.2" transform="rotate(-135 105.084 55.3037)" fill="#009C64"/>
<rect x="39.4648" y="46.2529" width="9.6" height="12.8" rx="3.2" transform="rotate(-45 39.4648 46.2529)" fill="#009C64"/>
<rect x="98.2959" y="105.084" width="9.6" height="12.8" rx="3.2" transform="rotate(-45 98.2959 105.084)" fill="#009C64"/>
</svg>
