<svg width="88" height="88" viewBox="0 0 88 88" fill="none" xmlns="http://www.w3.org/2000/svg">
<path d="M78.02 64.16C76.616 62.72 74.852 62 72.8 62H47.6L40.112 59.372L41.3 55.988L47.6 58.4H57.68C58.94 58.4 59.948 57.896 60.776 57.068C61.604 56.24 62 55.232 62 54.116C62 52.172 61.064 50.84 59.192 50.084L33.02 40.4H26V72.8L51.2 80L80.108 69.2C80.144 67.292 79.424 65.6 78.02 64.16ZM18.8 40.4H4.34241V80H18.8V40.4Z" fill="black"/>
<path d="M76.4 1C68.08 1 63.4 7.9342 63.4 11.4C63.4 7.9342 58.72 1 50.4 1C42.08 1 40 7.9342 40 11.4C40 29.6 63.4 42.6 63.4 42.6C63.4 42.6 86.8 29.6 86.8 11.4C86.8 7.9342 84.72 1 76.4 1Z" fill="#009C64"/>
</svg>
