<svg width="120" height="120" viewBox="0 0 120 120" fill="none" xmlns="http://www.w3.org/2000/svg">
<path d="M94.22 80.36C92.816 78.92 91.052 78.2 89 78.2H63.8L56.312 75.572L57.5 72.188L63.8 74.6H73.88C75.14 74.6 76.148 74.096 76.976 73.268C77.804 72.44 78.2 71.432 78.2 70.316C78.2 68.372 77.264 67.04 75.392 66.284L49.22 56.6H42.2V89L67.4 96.2L96.308 85.4C96.344 83.492 95.624 81.8 94.22 80.36ZM35 56.6H20.5424V96.2H35V56.6Z" fill="black"/>
<path d="M92.6 17.2C84.28 17.2 79.6 24.1342 79.6 27.6C79.6 24.1342 74.92 17.2 66.6 17.2C58.28 17.2 56.2 24.1342 56.2 27.6C56.2 45.8 79.6 58.8 79.6 58.8C79.6 58.8 103 45.8 103 27.6C103 24.1342 100.92 17.2 92.6 17.2Z" fill="#009C64"/>
</svg>
