<svg width="120" height="120" viewBox="0 0 120 120" fill="none" xmlns="http://www.w3.org/2000/svg">
<path d="M18.3333 26.5984H101.667V93.2617H18.3333V26.5984Z" fill="#D0CFCE"/>
<path d="M24.9733 41.6467H38.3067V60.1184H24.9733V41.6467Z" fill="#D0CFCE"/>
<path d="M94.05 86.5083H53.17V42.5H94.05V65.7867V86.5083Z" fill="#008D5A"/>
<path d="M20.0966 34.6884H100.21M45.4166 92.2067V34.6884M18.3333 26.5984H101.667V93.2617H18.3333V26.5984Z" stroke="black" stroke-width="1.77778" stroke-miterlimit="10" stroke-linecap="round" stroke-linejoin="round"/>
<path d="M94.05 86.5084H53.17M94.05 86.5084V65.7867V42.5001M94.05 86.5084L53.17 42.5001M53.17 86.5084V42.5001M53.17 86.5084L94.05 42.5001M53.17 42.5001H94.05M24.8217 71.3001H33.3183M24.8217 77.9667H38.6683M24.8217 84.6334H33.3183M24.9733 41.6467H38.3067V60.1184H24.9733V41.6467Z" stroke="black" stroke-width="1.77778" stroke-miterlimit="10" stroke-linecap="round" stroke-linejoin="round"/>
</svg>
