<svg width="112" height="112" viewBox="0 0 112 112" fill="none" xmlns="http://www.w3.org/2000/svg">
<path d="M17.1111 24.8251H94.8889V87.0442H17.1111V24.8251Z" fill="#D0CFCE"/>
<path d="M23.3085 38.8702H35.7529V56.1105H23.3085V38.8702Z" fill="#D0CFCE"/>
<path d="M87.78 80.7411H49.6254V39.6666H87.78V61.4008V80.7411Z" fill="#008D5A"/>
<path d="M18.7569 32.3757H93.5293M42.3889 86.0595V32.3757M17.1111 24.8251H94.8889V87.0442H17.1111V24.8251Z" stroke="black" stroke-width="1.77778" stroke-miterlimit="10" stroke-linecap="round" stroke-linejoin="round"/>
<path d="M87.78 80.7411H49.6253M87.78 80.7411V61.4009V39.6667M87.78 80.7411L49.6253 39.6667M49.6253 80.7411V39.6667M49.6253 80.7411L87.78 39.6667M49.6253 39.6667H87.78M23.1669 66.5467H31.0971M23.1669 72.7689H36.0904M23.1669 78.9911H31.0971M23.3084 38.8702H35.7529V56.1105H23.3084V38.8702Z" stroke="black" stroke-width="1.77778" stroke-miterlimit="10" stroke-linecap="round" stroke-linejoin="round"/>
</svg>
